<?xml version="1.0" encoding="UTF-8"?><svg id="Layer_2" xmlns="http://www.w3.org/2000/svg" viewBox="0 0 460.87775 499.79468"><g id="Layer_5"><path d="m231.33972,0L0,499.79468h460.87775L231.33972,0ZM57.77368,488.08362l-7.31152-10.45001h20.58057l-10.3324,10.45001h-2.93665Zm-4.8717-44.1767l-5.98608-15.8631.25812-.56067,14.33673-2.61316-8.60876,19.03693Zm10.78503-23.84937l-5.89899-15.63232.34619-.75201,14.1264-2.57477-8.57361,18.95911Zm10.7851-23.84943l-5.81189-15.40155.4342-.94324,13.91608-2.5365-8.53839,18.88129Zm10.78503-23.84937l-5.72479-15.17072.52228-1.13464,13.70575-2.49817-8.50323,18.80353Zm10.78503-23.84937l-5.6377-14.93994.61035-1.32599,13.49542-2.45978-8.46808,18.72571Zm10.7851-23.84937l-5.55066-14.70923.69843-1.51721,13.28516-2.42151-8.43292,18.64795Zm10.78503-23.84937l-5.46356-14.47839.78656-1.70862,13.07477-2.38318-8.39777,18.57019Zm9.52692-21.46826l.31805-.30225-.12.26532-.19806.03693Zm1.40643-2.70898l-5.37524-14.24445,1.08722-2.36194,12.85748-2.34357-8.56946,18.94995Zm10.78503-23.84937l-5.28815-14.01367,1.17529-2.55328,12.64716-2.30524-8.5343,18.87219Zm10.7851-23.8493l-5.20111-13.78302,1.26337-2.74457,12.43683-2.26678-8.49908,18.79437Zm10.78503-23.84943l-5.11401-13.55219,1.35144-2.93585,12.2265-2.22852-8.46393,18.71655Zm10.7851-23.84937l-5.02698-13.32135,1.43951-3.12726,12.01617-2.19019-8.42871,18.63879Zm10.78503-23.84943l-4.93982-13.09058,1.52759-3.31848,11.80579-2.15186-8.39355,18.56091Zm10.7851-23.84937l-4.85278-12.8598,1.61566-3.50983,11.59546-2.11353-8.35834,18.48315Zm10.78503-23.84937l-4.76569-12.62903,1.70374-3.70117,11.38519-2.0752-8.32324,18.4054Zm10.7851-23.84937l-4.67859-12.39825,1.79175-3.89252,11.17487-2.03687-8.28802,18.32764Zm-1.55658-19.18054l6.20764-13.48541,4.39478,11.51019-10.60242,1.97522Zm-4.66492,10.13397l4.45709,11.6734-10.75269,2.00323,6.29559-13.67664Zm-10.87256,23.61951l4.51935,11.83643-10.90289,2.03125,6.38354-13.86768Zm-10.87256,23.61951l4.58167,11.99951-11.05322,2.05927,6.47156-14.05878Zm-10.8725,23.61945l4.64392,12.16266-11.20349,2.08722,6.55957-14.24988Zm-10.87256,23.61951l4.70618,12.32574-11.3537,2.11523,6.64752-14.44098Zm-10.87256,23.61938l4.76849,12.48895-11.50397,2.14319,6.73547-14.63214Zm-10.87256,23.61951l4.83075,12.65204-11.65417,2.1712,6.82343-14.82324Zm-10.87256,23.61951l4.89307,12.81512-11.8045,2.19922,6.91144-15.01434Zm-10.87256,23.61945l5.21228,13.65112-12.57452,2.34259,7.36224-15.99371Zm-11.02295,23.94623l5.16803,13.53528-12.46783,2.32281,7.2998-15.85809Zm-10.8725,23.61945l5.23029,13.69843-12.6181,2.35077,7.38782-16.04919Zm-10.87262,23.61951l5.2926,13.86151-12.76831,2.37878,7.47571-16.2403Zm-10.8725,23.61945l5.35486,14.02466-12.91864,2.4068,7.56378-16.43146Zm-10.87256,23.61945l5.41711,14.18781-13.06885,2.43475,7.65173-16.62256Zm-10.87256,23.61951l5.47943,14.35089-13.21912,2.46277,7.73969-16.81366Zm-10.87256,23.61945l5.54175,14.51404-13.36938,2.49072,7.82764-17.00476Zm-9.15222,19.88232l14.54706-2.65149-8.64398,19.11475-6.07318-16.09381.1701-.36945ZM231.17804,59.94336l188.33539,414.94458h-83.63269l-1.82104-.26953.19019.26953h-10.65997c-.10236-.24426-.20618-.49066-.31073-.75208.81073-.09009.99084-.45038.99084-1.17096-.09009-1.62134,0-3.15265,0-4.77399v-5.13428c-1.26111,1.80151-2.43207,3.42285-3.60303,5.04419-.54041-.2702-.81067-.45038-1.17096-.63055-.36029.2702-.63055.54047-.99078.81073-.54047-.2702-.99078-.54047-1.53131-.81073-.36029.18018-.72058.45038-1.08087.63055-.63055-2.61218,1.62134-2.34192,2.88239-3.15259v-10.80902c-1.08093,2.1618-2.1618,4.14343-3.15265,6.12512-.63049-.27026-1.08087-.54047-1.62128-.81073-.36035.45038-.72064.90076-1.08093,1.35114-.63055-.2702-1.17096-.45038-1.44116-.54041-1.35114.36029-2.43207.63049-3.69305.99078-.54041-.63055-.2702-1.35114,0-2.07172.18018-.63055.2702-1.35114.36029-2.07172.09009-.99078,0-1.98163.27026-2.88239.36029-1.26111.18011-2.52209-.36035-3.69305-.36029-.90076-1.17096-1.53131-1.80151-2.34192-.63049-.90076-1.35107-1.35114-2.43201-1.53131-2.43201-.45038-2.43201-.54041-3.15259-2.88239q0-.09003-.09009-.18018c-.18018-2.07172-1.08093-3.24268-3.42285-2.97247-.36029.09009-1.17096-.54041-1.17096-.81067.09009-1.71143.18018-3.51294.72058-5.13428.2702-.99078.63055-1.80151.45038-2.7923-.18018-1.17096-.72058-2.34192-.72058-3.51294,0-3.96332.09009-7.92657.2702-11.88989,0-.36029.18018-.72058.2702-1.08087h.2702c.27026.81067.54047,1.53125.99084,2.70221-.09009-3.51294-.2702-6.66553-.2702-9.81818-.09009-3.51294,0-6.93573-1.44122-10.17841-.63049,1.98163-.36029,4.4137-2.34192,6.30524-.54047-2.07172-.99084-3.87323-1.53131-5.85486-.2702,1.44116-.54047,2.61218-.81067,3.87317h-.36029c-.45038-1.62134-.99084-3.33276-1.44116-4.9541.09003,2.43201-.81067,4.59381-1.98169,6.66559-.45038-1.26111-.63055-2.52209-1.08087-3.7832-.36035-1.26105-.18018-2.70221-1.17102-3.69299-1.35107,6.84564-.99078,13.69135-.81061,20.53699.36029-.36029.63049-.54041,1.26099-1.08087-.18011,4.77393.36029,9.09753.27026,13.42114-.99084.2702-1.53131,0-1.98169-.54041-1.80151-2.43207-4.32355-4.50372-3.69305-8.19678-1.8916-.45038-2.25189-1.80151-2.34198-3.33282-.09009-.72058-.2702-1.53125-.36029-2.1618-.90076-.54041-1.71143-1.08087-2.52209-1.62134-.81061-.54041-1.71136-1.08087-2.70221-1.71143,1.35114-1.44116,2.07172-2.7923,1.26105-4.59381-.09009-.18011.09009-.54041,0-.81067-.09009-.63055-.09009-1.35114-.2702-1.89154-.45038-1.26111-.72058-2.52209-.63055-3.87323.09009-2.52209-.36029-2.97247-2.61218-3.15259-.54047-.09009-1.35107-.2702-1.62134-.63055-.72058-.99078-1.35107-2.1618-1.62134-3.33276-.63049-2.61218-.9007-5.31445-1.44116-8.28693-.36029,1.08093-.63055,1.8916-1.08093,3.06256-1.35114-1.71143-1.17096-3.33276-1.44122-4.9541.72064-.18011,1.44122-.36029,2.25189-.54041-.2702-.72058-.45038-1.35114-.81067-1.89154-.90076-1.44116-1.17096-2.97247-1.17096-4.59381-.09009-1.89154,0-3.87317-.09009-5.76483-.09009-1.44116.36029-2.52203,1.98169-2.97241-.27026-.45038-.45038-.90076-.54047-1.26111-.09009-.54041-.2702-1.17096-.09009-1.71143.54047-1.26105.72058-2.61218.63055-4.05334-.09009-2.52209-.18018-5.04419-.27026-7.56635v-3.51294c-.63049,1.35114-1.08087,2.70227-1.53125,4.05341-.2702.72058-.54047,1.44116-1.62134,1.26105-.09009-.2702-.18018-.45038-.18018-.63055v-11.70972c0-.36029.09009-.81067.2702-1.08087,1.26105-1.35114,1.80151-3.51294,4.14349-3.69305-.36029-1.17096-.90076-1.80151-1.8916-2.25189-.45038-.18011-.99084-.54041-1.35114-.90076-.90076-1.26105-1.71143-2.61218-2.61212-3.96326-.09009-.18018-.18018-.36035-.27026-.36035-1.26099-.36029-.99078-1.35114-1.08087-2.25189-.09009-1.62134-.18018-3.15259-.18018-4.77393,0-.63055.09009-1.35114.45038-1.80151.72058-1.26105.45038-2.07172-.99084-2.25183-.45038-.09009-.99078-.09009-1.53125-.18018,0-.99078-.09009-1.80151-.09009-2.70227v-11.16925c0-.63055.09009-1.35114-.18018-1.80151-.72058-.90076-.63055-1.98169-.81067-2.97247-.09009-.90076-.09009-1.80151-.18018-3.06256-.54041,1.17096-.9007,1.98169-1.26105,2.88239-.18011,0-.2702-.09003-.45032-.09003-.09009-.63055-.18018-1.26105-.18018-1.89154-.09009-1.89154-.09009-3.69305-.18018-5.58466-.18018-4.14343-.36029-8.37695-.54047-12.52045,0-.81067-.18011-1.62128.90076-2.07166.18018-.09009.09009-.63055.18018-.99084-.90076-.45038-1.17096-1.17096-1.17096-2.1618,0-1.17096-.09009-2.43201-.18018-3.60297-.09009-1.62134,0-3.15265.36029-4.77399.2702-1.08087.18018-2.34192-.18018-3.42279-.45038-1.17096-.63049-2.34192-.72058-3.51294-.09009-1.17096-.2702-2.34192-.36029-3.7832-.45038,1.08093-.81067,1.98169-1.17096,2.88245-.2702.81067-.72058.99078-1.44116.54041-.09009-.18018-.09009-.2702-.09009-.36029-.09009-5.58466-.27026-11.16931-.36029-16.84399,0-.99084.36029-1.53131,1.17096-1.98169.36029.09009.72058.18018,1.35107.45038-.2702-.81067-.36029-1.35114-.54041-1.89154-1.26105-3.60297-2.52209-7.11591-3.7832-10.71893-.2702-.90076-.45032-1.89154-.54041-2.88239-.09009-1.53131-.09009-3.06256-.09009-4.59381-.09009-2.61218-.18018-5.13428-.18018-7.7464,0-.09003.09009-.2702.18018-.45038.2702.09003.45038.18018.63049.2702.18018.09009.45038.18018.72064.2702-.18018-1.80145-.36029-3.42279-.54047-5.2243.81067.18018,1.26105.18018,1.89154.36035-.36029-1.62134-.81067-3.06262-1.17096-4.68396.63055.09009.99084.09009,1.35114.18018-.18018-4.14343-.2702-8.19678-.45038-12.52039-.45038.72058-.72058,1.08093-1.26105,1.8916-.72058-1.80151-1.44116-3.42285-2.07172-5.04419-.09003-.2702.18018-.81067.45038-1.08093.99084-.99084,2.07172-1.80151,3.42285-2.97247v-5.2243c.90076-.2702,1.35114-.54047,1.35114-1.53131-.09009-2.88239-.18018-5.76477-.2702-8.73724-.54047,1.53131-.90076,2.97247-1.26105,4.50372-.18018.81067-.54047,1.44122-1.80151.90076-.54047-12.1601-1.08093-24.41028-1.71143-36.84058-.2702,2.88239-.36029,5.67468-.72058,8.46704-.36029,2.7923-.63055,5.58466-1.35114,8.37695-.63049-.54047-1.62134-1.53131-3.24268-2.79236-2.79236-2.43201-3.87323-3.0625-5.67468-3.69305-1.80151-.63055-2.97247-.63055-2.97247-.63055,0,0-1.17096-.09009-2.97247.63055-1.80151.63055-2.88239,1.35114-5.67468,3.69305-1.44122,1.26105-2.43207,2.1618-3.06256,2.70227-.90076-3.60303-1.89154-7.20599-2.61212-10.80896-.54047-2.43207-.81067-4.95416-1.17096-7.38617h-.18018c.2702,12.07001.54047,24.14001.81067,35.93982-.90076.45038-1.44122.81067-2.1618,1.17096-.54047-1.80145-.99084-3.60297-1.44122-5.31439h-.36029c-.09009,2.97247-.09009,6.03503-.09009,9.00751,0,.2702.18018.72058.36029.81067.99084.45032.90076,1.26099.90076,2.07166v4.05341c.54047.2702.90076.45038,1.26105.63049,1.98169.81067,3.24274,2.25189,4.05341,4.05341.18011.36029.36029.90076.18011,1.26105-.72058,1.44116-1.62134,2.7923-2.70221,4.32355-.54047-.99084-.99084-1.71143-1.35114-2.43201-.09009,0-.2702,0-.36029.09009v11.07922c0,.2702.2702.54041.36029.81067.72058-.09003,1.35114-.2702,1.8916-.36035.72058,1.80151-.81067,2.88245-.81067,4.14343.63049.54047,1.17096.90076,1.62134,1.26111-.18018,1.44116-1.17096,2.43201-.63055,3.96332.36029-.36035.63055-.63055.81067-.90076,1.08087.18011,1.26105.81067,1.26105,1.71143v14.68219c0,.36029,0,.72058-.09009.99078-1.17096,3.15265-1.62134,6.48541-3.24274,9.45782-.45032.81073-.63049,1.80151-.81061,2.52209.63049.63055,1.17096.99084,1.44116,1.44122.72058,1.26105,1.17096,2.52203,1.17096,4.05334,0,4.14343.18018,8.19678.18018,12.34027,0,.2702-.09009.63049-.09009.9007-2.25189.36035-2.34192.36035-3.15259-1.44116-.54047-1.08087-.99084-2.25183-1.53131-3.69305,0,2.25189-.09009,4.23358,0,6.21521.18018,4.77393.36029,9.638.63055,14.41199,0,.36029.09009.72058-.09009.99078-.72058,1.26105-.45038,2.70221-.45038,4.05334v2.34192c0,.72058-.18018,1.26111-.90076,1.53131-.09009,0-.09009.2702-.18018.45038.45038.2702.81067.54041,1.26105.81067,0,1.53131.18018,3.06256-.09009,4.59381-.54041-.36035-.81067-.54041-1.26105-.90076.09009,1.44116.18018,2.52209.27026,3.69305.18011,2.7923.36029,5.58466.45038,8.37695,0,.45038.09003.99078-.18018,1.26105-.81067.81067-.54047,1.71143-.63055,2.61218-.09009,1.17096.09009,2.43207-.36029,3.42285-.63055,1.53125-.72058,3.06256-.81067,4.6839-.18018,2.07172-.2702,4.14343-.36029,6.21515,0,.45038,0,1.08093.2702,1.44122,1.17096,1.53125.63055,3.06256.2702,4.77393-.06122.00763-.11224.02179-.17218.03064l.00836-.01996c-.05939,0-.13629.02429-.21814.05719-.50793.08704-.97406.19104-1.38342.2666l-.13007-.05035c.62659-.84308,1.95947-1.75446,1.95947-1.75446-1.26453-.06836-2.59741,1.48102-2.59741,1.48102l-.86584-.43292.86584-.82025-1.16205.59241,1.18481-1.27594-1.09369.50128c.39874-.47852,1.57214-.95697,1.57214-.95697-.69495-.61517-3.16705.79749-3.16705.79749l1.02533-1.11646c-.62659,0-1.62915.75189-1.62915.75189l-1.07086-.68353c.1709-.59241,2.3924-1.25317,2.3924-1.25317-.62659-.50128-2.09619.13672-2.09619.13672.12531-.43292,2.09619-1.95947,2.09619-1.95947-1.99365.3645-3.91895,1.91388-3.91895,1.91388l-.15955-.11389c.05701-.3418.56964-.638.56964-.638-.39874-.27344-1.13922.27344-1.13922.27344l-.3418-.15948c1.40125-1.73169,2.32404-1.59497,2.32404-1.59497-.76324-1.02527-3.44049.95697-3.44049.95697.37598-.72913,1.86835-1.70886,1.86835-1.70886-1.19617-.22784-2.6886,1.18481-2.6886,1.18481l-.59241-.4101s.8089-.79749.88861-.84308c.07977-.04553-.61517.04559-.61517.04559,1.31012-1.11646,3.34937-1.86835,3.34937-1.86835-1.40125-.2962-4.10126,1.13922-4.10126,1.13922,1.21899-2.11896,2.73419-2.3924,2.73419-2.3924.64935-.04553,1.36707-.25061,1.36707-.25061,1.19617-.43292,2.14172-.2962,2.14172-.2962,1.56079,0,1.08228-.47852,1.08228-.47852-2.28986-4.85315,1.18481-6.78979,1.18481-6.78979.42151-.31903.26202-.52405.26202-.52405-2.49493-3.78229,2.43799-5.51392,2.43799-5.51392,1.12787-.27344.61517-.66077.61517-.66077-3.29236-.50128-1.48102-1.3443-1.48102-1.3443,3.31519-1.84558,2.30127-2.18732,2.30127-2.18732-3.29236.61517-11.03918,6.81262-11.03918,6.81262-3.70251-3.64557-1.58356-5.53668-1.58356-5.53668.87726-.43292.09113-.77472.09113-.77472-6.89233-3.09869-6.34552-4.71643-6.34552-4.71643-1.12781-.2962-2.55188.09119-2.55188.09119-1.85693.68353-6.31134-.638-6.31134-.638-2.47217,1.23035-2.82532,3.41772-2.82532,3.41772-.42151,2.57465,2.28986,6.56201,2.28986,6.56201-.58099-.41016-1.49243-.22791-1.49243-.22791-.99109.59241-.72906,1.07092-.72906,1.07092.21643-.22784.72906-.36456.72906-.36456l.95697.06836c.44434.34174,1.13922.47845,1.13922.47845.05701.20508.54688.3418.54688.3418l.36456.2962c1.21893.15948,2.3924,2.14172,2.3924,2.14172,2.28986,3.0304,1.92529,6.56201,1.92529,6.56201-.12531,1.52661-.56964,3.04749-.56964,3.04749-.33319.2392-.61517.5639-.61517.5639-.12817-1.16205.06836-1.14496.06836-1.14496.36743-.61517-.35889-1.24744-.35889-1.24744-.41864-.20508-.87146-.83734-.87146-.83734-.4187-.42719-1.52094-.18799-1.52094-.18799-.04272-3.99872-.22211-4.22083-.22211-4.22083-.05981.47845-.27344,4.39172-.27344,4.39172-.14526.10254-.20508.52972-.20508.52972,0,0-.6579-.25629-.7348-.27338s-.01709.1709-.01709.1709l.71771.32465-.05695.54681-.25061.25067-.04559.63794-.31897.09119-.18231.66071.22784.22784-1.68604,1.82281.39874-.79749c.30756-.47845.13672-.38733.13672-.38733-.83167.47845-1.61774,2.11896-1.61774,2.11896l-.41016.27344c-.12531-.25061.04559-1.3443.04559-1.3443-.37592.36456-.7063,1.70886-.7063,1.70886l-1.20764.79749c-.14807-.06836.2962-1.82281.2962-1.82281-.64935.20508-1.20758,2.32404-1.20758,2.32404-.1709.02283.06836-1.27594.06836-1.27594-.42151.52405-.71771,1.57214-.71771,1.57214-.74048,1.07092-3.91895,1.00256-3.91895,1.00256-1.78864-.02283-1.79999.25061-1.79999.25061-.12537.2962-.56964.4101-.56964.4101-.2962.31903-.07123.58673-.07123.58673l.11963-.10254.1709.22217.1709-.15381.05127.20508s.12817-.15381.1709-.23926c.04266-.08545.0683.1709.0683.1709l.06836-.18799.13672.30762.10254-.20508.20508.10254-.70062.58099c-.05981.08545-.49561.20508-.49561.20508-.3161.23926.01709.30762.01709.30762.46997.0683.66644-.23926.66644-.23926.36743-.30762,1.02533-.27344,1.02533-.27344-.04272.49561-.88861.64935-.88861.64935-.33319.06836-.68353.37598-.68353.37598.05981.44427.63226.51263.63226.51263l.42725.22217-.22217.06836.7348.13672.10254.39301.13672-.32465.23926.05127.01709-.30762c.00854-.15381.17084-.10254.17084-.10254.38452.99115.92279,1.11078.92279,1.11078l-.1709-.42725c-.23065-.46136-.01709-1.26453-.01709-1.26453.31616.64935,1.45258,1.26453,1.45258,1.26453.21356.01709.01709-.59808.01709-.59808-.35034-.25635-.5896-.92279-.5896-.92279,1.52942-.32465,2.73419-1.17908,2.73419-1.17908l3.18701-1.82849c1.64905-.71771,3.76801-.92279,3.76801-.92279-.29901.11963-.7348.46136-.7348.46136-.41864.3418.10254.35889.10254.35889l1.41833.03418c.38452,0,.23926-.70062.23926-.70062,1.05096.18799,1.45251-.06836,1.45251-.06836.53827-.37598.55536,1.16199.55536,1.16199.31616,1.12787,1.58923.99115,1.58923.99115h1.99939c1.25598-.01709,1.27307-.30756,1.27307-.30756.17944-.22217.39307.34174.39307.34174.43573.5127.82025-.01709.82025-.01709.11108-.39301.71771-.29047.71771-.29047.11108.13666.80316.17084.80316.17084-.0769.23926.11963.68359.11963.68359.21356.35883.24774,1.19617.24774,1.19617.12817.80316.71771.78607.71771.78607l.83734.10254c1.01678.11963,1.21332.01709,1.21332.01709.46991-.27344.87152.01709.87152.01709.57245.27344.34174.64935.34174.64935-.0769.06836-.20502.49554-.20502.49554-.02563.18799-.52979.83734-.52979.83734l-.99109,1.11078s-.52979.71771-.96552,1.09369c-.43579.37592-.18799.90564-.18799.90564.487,1.65759-.00854,1.48676-.00854,1.48676,1.51233,1.57214,3.00757.87152,3.00757.87152-.60663-.06836-.9057-.54688-.9057-.54688-.02563-.15381-.17084-.4101-.17084-.4101-.74335-.75189-.49561-1.36713-.49561-1.36713.09399.30762.9057,1.55505.9057,1.55505l.01709.15381c.69208.47852,1.65759.11963,1.65759.11963-.40161-.01709-1.04242-.54681-1.04242-.54681l-.05127-.44434-.22211-.15375-.5127-.85443c.17944-.27344,0-.64941,0-.64941-.12817-.75189,1.02533-.87146,1.02533-.87146.02563.974,1.43542,2.40948,1.43542,2.40948.29907.51263,1.16205.46136,1.16205.46136,1.0509.05127.8288.58099.76898.61517,1.81989-1.00824,1.60632-1.77722,1.60632-1.77722l-.41016.35889c.40161-.51263.41016-1.16205.41016-1.16205-.69208,1.00824-1.62341.9057-1.62341.9057.99969-1.09363.75189-1.70886.75189-1.70886-.40161,1.11078-2.20441,1.14496-2.20441,1.14496-.50415-1.60632.13666-1.8114.13666-1.8114.4187-.10254.47852-.44427.47852-.44427.33319-.20508,1.40979-.11395,1.40979-.11395-.76331-.91138-2.14178-.59241-2.14178-.59241.26202.47852-.56958.88861-.56958.88861l.09113-1.43542c.14807-.50128.20508-1.41266.20508-1.41266l.36456-.63794-.36456-.25067-.18231-.34174-2.07336-.11395-.66077-.52405.34174-.68353c2.26709.41016,4.52277,1.86835,4.52277,1.86835,1.62469.95917,3.10797,1.62091,4.37494,2.0824,1.07074,1.97583,1.24976,4.13043.98053,6.46411-.63055.2702-1.26105.54041-1.98169.81067v7.20599c0,1.17096.09009,2.43201,0,3.60297s.2702,2.34192-.36029,3.60303c-.36029-.36035-.54047-.63055-.81067-.99084-.36029,1.44122.18018,2.7923-.63049,4.32361-.54047-1.26111-.99084-2.25189-1.44122-3.06256v18.73553c0,.81067-.09009,1.89154-.54047,2.34192-1.08087,1.17096-1.17096,2.70227-1.80151,3.96332-.63049,1.35114-1.26105,2.61218-1.80145,3.96332-.18018.45038-.36029,1.08087-.18018,1.53125.18018.63055.45038,1.35114.90076,1.89154.45038.63055.36029,1.26111,0,1.80151-.2702.36035-.72058.72058-1.08093,1.08093-.99084.90076-1.98163,1.71143-2.88239,2.70221-1.08093,1.17096-1.62134,1.44122-3.15265.99084-.99078-.36035-1.98163-.90076-2.43201-2.07172-.18018-.36035-.45038-.72058-.81067-.90076-1.98163-1.08093-5.13428-.36035-6.48541,1.44116-.45038.63055-1.08087,1.08093-1.62134,1.62134-1.35107,1.44116-2.70221,2.88239-3.96326,4.32361-.18018.2702-.2702.63049-.36029.9007-.2702.81073-.45038,1.62134-.72058,2.34192-.99084,2.52209-2.34198,4.59381-5.49457,4.59381-.45038,0-1.26105.2702-1.44122.63055-.36029.81067-1.08087,1.08087-1.71143,1.44116-.99078.45038-1.71143,1.08093-1.98163,2.25189-.18018.90076-.99084,1.35107-1.98169,1.71143-.09009-.36035-.2702-.72058-.36029-1.08093-.18011-1.98163-.36029-3.96332-.45038-5.94489,0-.36035.18018-.90076.36029-1.17096,1.26105-1.80151,1.53131-3.60303.09009-5.40448-.09009-.18018-.2702-.36035-.18011-.63055,0-1.53125,0-3.06256.18011-4.59381,0-.45038.36029-.99078.63055-1.80145.45038.99078.81067,1.62134,1.08093,2.25183.09003,0,.18011-.09003.36029-.09003-.36029-6.12506-.72058-12.25018-1.08093-18.37531h-.18018c-.18011,1.71149-.36029,3.42285-.54047,5.22437-.09003,0-.2702,0-.36029.09003-.81067-1.71143-.72058-3.60297-1.53125-5.40448-.18018.72058-.36029,1.44116-.45038,2.07172h-.36029c-.45038-1.44116-.90076-2.88239-1.53131-4.6839-.9007,2.97247-1.17096,5.85486-2.16174,8.46704h-.36029c-.54047-2.34192-1.17096-4.6839-1.80151-7.20599-.36029,1.17096-.63055,2.07172-.90076,3.06256-.09009,0-.2702,0-.36029-.09003-.18018-.99078-.45038-1.98169-.63055-3.15265-.72058,2.43207-.63049,4.86407-1.53125,7.11597-.54047-2.52209-.45038-5.04419-.99084-7.4762h-.45038c.18018,7.4762.36029,14.8623.54047,22.69885,1.08093-1.44116-.18018-3.33276,1.80151-4.05334.54041,1.89154.2702,3.78314.36029,5.58459,0,.81073-.36029,1.35114-.90076,1.80151-.18018.09003-.18018.36035-.18018.63055.09009,1.62134-.54047,3.42279.72058,4.86407.18018.18011.2702.63049.2702.9007.18018,4.6839.36029,9.3678.54047,13.96161,0,.45038-.18018,1.08093-.45038,1.44116-1.08087,1.26111-1.17096,2.61218-.09009,3.96332.27026.36035.45038.72058.81067,1.26111-1.17096.81067-2.25183,1.44116-3.42279,2.25183-.18018,1.53131.09009,3.15265-.63055,4.77399-1.17096-.09009-2.34198-.18018-3.51294-.27026-.72058-.09003-1.26099.18018-1.62128.90076-.45038.90076-.90076,1.71149-1.53131,2.52209-.63055.90076-.90076,1.80151-.81067,2.88239.09009,1.35114,0,2.70227,0,4.14343-.45038.2702-.90076.54047-1.35114.81073-.09009.63049-.2702,1.08087-.36029,1.62134-.2702,1.35107-.36029,2.61218.63055,3.78314.2702.2702.36029.99078.2702,1.35114-.2702.9007-.81067,1.80145-1.26105,2.70221-.90076-.36029-1.71143-.63055-2.43201-.81067-2.1618-.63055-3.51294.45038-3.60303,2.70221-.09009,2.25189-.45038,4.32361-2.52203,5.76483-.18018.18018-.45038.36029-.63055.54041-.72058.63055-1.35114,1.17096-2.43207,1.26111-.81067.09003-1.53125.63049-2.43201,1.08087.18018.90076.2702,1.53131.45038,2.25189.45038,1.71143-1.08093,3.78314-2.88239,3.87317-.81067.09009-1.62134.18018-2.52209.27026.09009.72058.18018,1.17096.09009,1.71143-.09009.45038-.18018.99078-.45038,1.35114-.54047.72058-1.17096,1.26105-1.80151,1.89154v4.9856H41.36426L231.17804,59.94336Zm179.05005,388.71844l14.57977,2.65747.08521.18658-6.11633,16.20825-8.54865-19.05231ZM251.40271,71.65802l-4.72076,12.51007-7.3454-16.37054,11.23853,2.04846.82764,1.81201Zm10.8338,23.72009l-4.80792,12.74103-7.43329-16.56665,11.4469,2.08649.79431,1.73914Zm10.83386,23.72009l-4.89508,12.97198-7.5213-16.7627,11.65533,2.12445.76105,1.66626Zm10.83386,23.72015l-4.98224,13.20288-7.60931-16.9588,11.86371,2.16241.72784,1.59351Zm10.8338,23.72003l-5.0694,13.43384-7.6972-17.15479,12.07208,2.20038.69452,1.52057Zm10.83386,23.72021l-5.15649,13.66473-7.78528-17.35095,12.28052,2.2384.66125,1.44781Zm10.8338,23.72003l-5.24365,13.89575-7.87323-17.54706,12.48889,2.27637.62799,1.37494Zm10.83386,23.72021l-5.33081,14.12659-7.96124-17.74316,12.69733,2.31433.59473,1.30225Zm10.83386,23.72003l-5.41797,14.3576-8.04926-17.93927,12.9057,2.35236.56152,1.22931Zm10.98273,24.0462l-5.50629,14.59167-7.93274-17.67969,13.12097,2.3916.31805.69641Zm10.83386,23.72015l-5.59344,14.82257-8.02075-17.87573,13.32941,2.42957.28479.6236Zm10.83386,23.72003l-5.6806,15.05359-8.10876-18.07184,13.53784,2.46753.25153.55072Zm10.83386,23.72015l-5.76776,15.28455-8.19672-18.26794,13.74615,2.50549.21832.47791Zm10.8338,23.72009l-5.85486,15.51544-8.28473-18.46399,13.95459,2.54352.185.40503Zm10.83386,23.72009l-5.94202,15.74646-8.37274-18.66016,14.16296,2.58148.15179.33221Zm10.8338,23.72015l-6.02917,15.97736-8.46063-18.8562,14.37134,2.61938.11847.25946Zm-4.08923,18.13898l5.63422-14.75635,7.89062,17.27606-13.52484-2.51971Zm-10.81024-23.78259l5.61047-14.69421,7.85736,17.20331-13.46783-2.50909Zm-10.8103-23.78259l5.58679-14.63208,7.82416,17.13055-13.41095-2.49847Zm-10.81024-23.78259l5.56305-14.56989,7.79089,17.05774-13.35394-2.48785Zm-10.8103-23.78259l5.53937-14.50775,7.75763,16.98499-13.297-2.47723Zm-10.81024-23.78259l5.51562-14.44562,7.72443,16.91229-13.24005-2.46667Zm-10.81024-23.78259l5.49182-14.38348,7.69122,16.83954-13.18304-2.45605Zm-10.80579-23.78168l-.15131-.33722,5.46509-14.31317,7.80786,17.09491-13.12164-2.44452Zm-10.81476-24.50415l5.29449-13.8667,7.41492,16.2345-12.70941-2.3678Zm-10.8103-23.78259l5.27081-13.80457,7.38165,16.16174-12.65247-2.35718Zm-10.70306-23.76263l-.06201-.13824,5.2019-13.62408,7.34845,16.08893-12.48834-2.3266Zm-10.65839-23.75427l-.1499-.33411,5.1142-13.39441,7.31519,16.01617-12.27948-2.28766Zm-10.65839-23.75427l-.23785-.53003,5.02655-13.16467,7.28198,15.94348-12.07068-2.24878Zm-10.65845-23.75433l-.32568-.72583,4.93884-12.935,7.24872,15.87073-11.86188-2.2099Zm-10.65839-23.75427l-.41357-.92175,4.85114-12.70526,7.21545,15.79797-11.65302-2.17096Zm-10.65839-23.75427l-.50146-1.11755,4.76343-12.47559,7.18225,15.72516-11.44421-2.13202Zm-10.65845-23.75433l-.58936-1.31342,4.67572-12.24591,7.14905,15.65247-11.23541-2.09314Zm-6.44104,95.62305s2.07172-.09009,3.87323-.81067c1.80145-.72058,3.78314-1.98163,5.85486-3.51288.72058-.54047,1.26105-.90076,1.71143-1.17096-.09003.45032-.18011.9007-.36029,1.35107-1.53125,3.87323-2.97241,7.83655-5.76477,10.98914-.2702.2702-.54047.45038-.90076.81067-.18011-.36029-.36029-.63055-.54041-.99084-.27026.81067-.45038,1.35114-.63055,1.98169-.63055,0-1.26105-.09009-1.8916,0-.72058.18018-1.17096-.09009-1.35107-.99084-.27026.54047-.45038.99084-.63055,1.35114-3.06256-.09009-3.60303-.63055-5.13428-3.06256-2.25189-3.60297-4.23352-7.29602-5.49457-11.34943.36029.2702.90076.63055,1.53125,1.08093,2.07172,1.44116,4.05341,2.7923,5.85492,3.51288,1.80145.72058,3.87317.81067,3.87317.81067Zm-1.1709-6.21515v-.2702c0-1.35114.2702-2.61218.9007-3.78314.63055,1.17096.90076,2.43201.90076,3.78314v.2702c-.09009.72058-.18018,1.44122-.36029,2.1618-.09009.2702-.18018.63055-.36029.90076,0,.09009-.09009.18018-.18018.18018-.09003,0-.09003-.09009-.18011-.18018-.18018-.2702-.27026-.54047-.36029-.90076-.18018-.72058-.36029-1.44122-.36029-2.1618ZM73.93842,478.37189l6.85162,9.71173h-16.37946l9.52783-9.71173Zm10.02496,9.71173l-7.31158-10.45001h20.42218l-10.33234,10.45001h-2.77826Zm16.09906-9.8056l6.91785,9.8056h-16.53772l9.61987-9.8056Zm10.09064,9.8056l-7.31165-10.45001h20.26379l-10.33234,10.45001h-2.61981Zm16.03339-9.89941l6.98401,9.89941h-16.69598l9.71198-9.89941Zm10.15631,9.89941l-7.31165-10.45001h20.10535l-10.3324,10.45001h-2.4613Zm15.96771-9.99329l7.05023,9.99329h-16.85425l9.80402-9.99329Zm10.22192,9.99329l-7.31158-10.45001h19.9469l-10.33234,10.45001h-2.30298Zm15.9021-10.0871l7.11639,10.0871h-17.01251l9.89612-10.0871Zm10.2876,10.0871l-7.31158-10.45001h19.78839l-10.33234,10.45001h-2.14447Zm15.83643-10.18097l7.18262,10.18097h-17.17078l9.98816-10.18097Zm10.35327,10.18097l-7.31165-10.45001h19.63007l-10.3324,10.45001h-1.98602Zm15.77075-10.27478l7.24884,10.27478h-17.32904l10.0802-10.27478Zm10.41888,10.27478l-7.31158-10.45001h19.47156l-10.33234,10.45001h-1.82764Zm15.78497-10.45001h.72986l7.37244,10.45001h-18.35437l10.25208-10.45001Zm11.27008,10.45001l-7.31158-10.45001h18.80554l-10.3324,10.45001h-1.16156Zm15.12207-10.45001h.52795l7.37244,10.45001h-18.15259l10.2522-10.45001Zm11.06763,10.45001l-7.31165-10.45001h18.64716l-10.33234,10.45001h-1.00317Zm14.96429-10.45001h.68622l7.37244,10.45001h-18.31079l10.25214-10.45001Zm11.22534,10.45001l-7.31158-10.45001h18.48865l-10.33234,10.45001h-.84473Zm14.80664-10.45001h.84448l7.37244,10.45001h-18.46912l10.2522-10.45001Zm11.38306,10.45001l-7.31158-10.45001h18.33026l-10.3324,10.45001h-.68628Zm14.64886-10.45001h.49432l7.37244,10.45001h-18.1189l10.25214-10.45001Zm11.03656,10.45001l-7.31158-10.45001h19.38861l-10.33234,10.45001h-1.74469Zm15.67078-10.41772l7.34967,10.41772h-17.57013l10.22046-10.41772Zm10.51892,10.41772l-7.31165-10.45001h19.23022l-10.33234,10.45001h-1.58624Zm15.54474-10.45001h9.08215l-2.90442-6.47308,6.12109-16.25848,15.15521,33.18158h-37.70618l10.25214-10.45001ZM240.56885,47.93787l-4.63367,12.27911-4.74268-10.57001-5.5813,12.3421-4.59149-12.16748,10.24463-22.25543,9.3045,20.3717ZM34.49347,455.03021l5.92572,15.51965.76172-.72388-3.5307,7.80762h9.57715l7.37244,10.45001H19.27832l15.21515-33.05341Z"/></g></svg>