<?xml version="1.0" encoding="UTF-8"?><svg id="Layer_2" xmlns="http://www.w3.org/2000/svg" viewBox="0 0 460.87775 499.79468"><g id="Layer_11"><polygon points="253.58154 304.00739 254.11243 304.64832 254.32953 304.54919 253.58154 304.00739"/><path d="m231.33972,0L0,499.79468h460.87775L231.33972,0ZM57.77368,488.08356l-7.31152-10.44989h20.58057l-10.33234,10.44989h-2.93671Zm-10.59973-60.60034l14.33679-2.61322-8.60876,19.03699-5.98608-15.8631.25806-.56067Zm10.96027-23.80994l14.12646-2.57483-8.57367,18.95917-5.89899-15.63232.34619-.75201Zm10.96021-23.80994l13.91614-2.5365-8.53851,18.88141-5.81189-15.40155.43427-.94336Zm10.96021-23.80994l13.70581-2.49817-8.5033,18.80359-5.72479-15.17078.52228-1.13464Zm10.96021-23.80994l13.49548-2.45978-8.46814,18.72577-5.6377-14.93994.61035-1.32605Zm10.96021-23.80988l13.28516-2.42145-8.43292,18.64795-5.55066-14.70923.69843-1.51727Zm10.96027-23.80994l13.07477-2.38312-8.39777,18.57019-5.46356-14.47845.78656-1.70862Zm14.20398-5.28125l.31805-.30225-.12.26532-.19806.03693Zm-2.88165-19.31531l12.85748-2.34357-8.56952,18.95001-5.37524-14.24451,1.08728-2.36194Zm10.96021-23.80994l12.64716-2.30524-8.5343,18.87219-5.28821-14.01367,1.17535-2.55328Zm9.69684-21.06531l1.26337-2.74463,1.4917-.27191c-.80377,1.46667-.96735,3.47614-.37085,5.90753.13983.57013-.22345,1.33014-.55865,1.94678l-1.82556-4.83777Zm12.22363-26.55457l12.2265-2.22852-6.91016,15.28064c-.72742-.09399-1.51086.00201-2.33075.22534-.13458.03668-.25787.08447-.38678.12671l-3.95032-10.46826,1.3515-2.93591Zm10.96021-23.80994l12.01617-2.19019-8.42877,18.63885-5.02698-13.32141,1.43958-3.12726Zm10.96021-23.80988l11.80585-2.15192-8.39362,18.56104-4.93982-13.09058,1.52759-3.31854Zm10.96021-23.80994l11.59552-2.11353-8.3584,18.48322-4.85278-12.8598,1.61566-3.50989Zm10.96021-23.80994l11.38519-2.07513-8.32324,18.40546-4.76569-12.62909,1.70374-3.70123Zm10.96021-23.80988l11.17487-2.03687-8.28802,18.32764-4.67859-12.39832,1.79175-3.89246Zm-60.91095,165.60773c-.03748,1.70874-.32935,3.42816-.31165,5.14026.02362,2.29071-.30627,4.86517.60803,6.80121,1.3866,2.93591,3.70056,5.43726,5.64655,8.10437,1.5072,2.06555,3.52991,3.9054,4.4765,6.19568,1.5813,3.82611,4.13055,5.37396,8.07947,5.11761,3.62445-.23529,6.46002,1.23822,8.64703,4.07599,1.10718,1.43665,2.24506,2.84998,3.33466,4.29974,1.7298,2.30121-8.90686,6.03705-6.10541,6.97699,1.72284.578,3.50562,1.62939,4.7049,2.9671,1.93738,2.16107,4.16382,2.5636,6.75128,2.17059,1.3476-.20471,2.72943-.40839,3.99438-.88281.69733-.26154,1.29797-.37097,1.83624-.3363-1.90906,2.27771-2.43628,5.99475-1.70233,5.72693.59534-.21722,5.55328,2.23413,6.05817,2.52423,4.06879,2.33783,2.19751.71301,7.17053,1.62549,4.31232.79126-.81635,8.46368-2.62726,12.66718-.76959.09308-1.44116.04773-1.44116.04773l-2.31689-1.39838c-1.25494,3.96216-14.57703,18.8786-15.05969,19.11169-.48273.23303-8.30219,7.45819-8.30219,7.45819l-8.10913,4.66144-10.52252,11.42041-7.72296,5.3606-5.40607-.23309-15.63892,14.21729-9.07446,10.72119-3.66846-.23309s-24.32727,18.64563-24.81,18.41254c-.48267-.23309-5.0199.23309-5.0199.23309l-8.68835,6.75897-1.73151-1.49298,76.95111-168.21985Zm151.19165,118.04907c.32178,1.39844,3.60406,2.64148,3.60406,2.64148.19305,1.55377-2.44562,2.95221-2.44562,2.95221-2.7674,3.41833,2.96045,6.37054,2.96045,6.37054.32178,7.30286-1.22278,11.03198-1.22278,11.03198-2.51001,4.66138,12.09924,14.76105,12.09924,14.76105,4.95557,5.74908,6.6933,3.57373,6.6933,3.57373,3.1535-2.64142,4.37628,1.70923,4.37628,1.70923.4505,3.10754,3.47534,5.43823,3.47534,5.43823l2.31689,1.08771c.70795,3.41833,3.08917,4.50598,3.08917,4.50598,3.28229,2.79688,2.05945,6.21521,2.05945,6.21521l2.31689.1554c5.4704-.1554,7.33679,2.0199,7.33679,2.0199,1.60895,2.17535,9.26758,5.90442,9.26758,5.90442,3.1535,1.39844,1.02972,2.48608,1.02972,2.48608-3.66846,3.1076-13.90137-6.83667-13.90137-6.83667-1.60895-2.17535-3.73273-.77692-3.73273-.77692-3.6684,2.48608-14.80231.62152-14.80231.62152-5.59918-2.79681,1.41589,3.57373,1.41589,3.57373,10.23291,13.05188,10.9408,18.49017,10.9408,18.49017,1.73767,3.57379-6.82196,3.4184-6.82196,3.4184-11.90619-.46619-17.63403-4.81677-17.63403-4.81677-6.75757-5.12756,2.83173-1.24304,2.83173-1.24304,4.69812,4.19525,14.67358,3.57373,14.67358,3.57373,1.60901-1.55383-.90094-8.70129-.90094-8.70129-.70795-2.17529-1.15845.62152-1.15845.62152-.06439-6.68134-3.08917-7.76898-3.08917-7.76898-7.01501-4.35065-4.05463-7.92438-4.05463-7.92438,3.53973-4.35065,6.43585-2.0199,6.43585-2.0199,3.79712,3.72906,7.7229.31073,7.7229.31073,2.89618-1.08765-4.24762-6.83673-4.24762-6.83673-.70795-2.0199-2.703,3.1076-2.703,3.1076,1.86639-5.2829-1.54462-10.09967-1.54462-10.09967-4.95557-2.01996-12.74286-9.01202-12.74286-9.01202-2.50995-1.70917-11.06952-9.32281-11.06952-9.32281-3.15356-3.41833-2.70306-5.1275-2.70306-5.1275,1.86639-7.61359-1.67334-14.13959-1.67334-14.13959-.70789-3.26294.51489-4.50598.51489-4.50598,1.73767-1.70917,1.28717-5.43829,1.28717-5.43829Zm11.97052-6.83673c2.89618,4.66138,6.43585,6.68134,6.43585,6.68134,4.18323,4.19525,7.33679,8.07977,7.33679,8.07977,1.99506,5.74902-1.54462.77686-1.54462.77686-1.22278-2.64142-13.90131-14.29492-13.90131-14.29492-1.22278-3.41833,1.67328-1.24304,1.67328-1.24304Zm34.36719,30.6098c.19312-2.48602,1.02972-.15533,1.02972-.15533l2.18817,4.66138,6.56451,8.5459c-3.53973.93225-6.04962-4.50604-6.04962-4.50604-2.51001-3.57373-3.73279-8.5459-3.73279-8.5459ZM251.40265,71.65802l-4.72076,12.51007-7.34534-16.37048,11.23853,2.04846.82758,1.81195Zm10.83386,23.72009l-4.80792,12.74103-7.43335-16.56659,11.44696,2.08643.79431,1.73914Zm10.83386,23.72009l-4.89508,12.97198-7.52136-16.7627,11.65533,2.12439.76111,1.66632Zm10.83386,23.72015l-4.98224,13.20294-7.60931-16.95886,11.86371,2.16241.72784,1.59351Zm10.8338,23.72009l-5.0694,13.4339-7.69727-17.15491,12.07214,2.20038.69452,1.52063Zm10.83386,23.72015l-5.15649,13.66479-7.78534-17.35101,12.28058,2.2384.66125,1.44781Zm10.83386,23.72009l-5.24371,13.89575-7.87329-17.54712,12.48895,2.27637.62805,1.375Zm10.8338,23.72009l-5.33081,14.12671-7.96124-17.74316,12.69733,2.31433.59473,1.30212Zm10.83386,23.72015l-5.41797,14.35767-8.04926-17.93933,12.90576,2.35236.56146,1.22931Zm10.98273,24.04614l-5.50629,14.59174-7.9328-17.67969,13.12103,2.39154.31805.69641Zm10.83386,23.72015l-5.59344,14.82269-8.02081-17.87579,13.32947,2.4295.28479.6236Zm10.83386,23.72009l-5.68066,15.05365-8.10876-18.07196,13.53784,2.46753.25159.55078Zm10.83386,23.72015l-5.76776,15.28461-8.19678-18.26813,13.74622,2.50555.21832.47797Zm10.8338,23.72009l-5.85492,15.5155-8.28473-18.46411,13.95465,2.54352.185.40509Zm10.83386,23.72009l-5.94208,15.74646-8.37274-18.66022,14.16309,2.58154.15173.33221Zm10.83386,23.72015l-6.02924,15.97742-8.46075-18.85632,14.37146,2.61945.11853.25946Zm-105.27472,13.05292s-5.21301.77686-10.55469-4.81677c0,0-2.63867-5.12756.25745-4.19525,0,0,5.85657,6.99207,10.29724,9.01202Zm-5.92096-9.94434c1.60895-3.72913,6.56451,3.1076,6.56451,3.1076,1.48022,3.57373-1.802.77692-1.802.77692-1.09406-2.48608-4.76251-3.88452-4.76251-3.88452Zm3.47534-4.66138s5.08429,1.24304-1.93073,1.70917c0,0-8.55957-.46613-10.68341-13.51807,0,0,.19305-4.66138,1.54456-1.08765,0,0,1.60895,10.56586,11.06958,12.89655Zm-6.62885-92.1402c-2.63867-.46619-9.65375-10.25507-9.65375-10.25507-1.09406-2.17535,1.41589,0,1.41589,0,2.89612,4.19525,5.66351,4.66138,5.66351,4.66138,3.79712,5.59369,2.57434,5.59369,2.57434,5.59369Zm-9.3963,4.97211l2.18817,3.57373s-4.5694-3.10754-9.39624-11.96423c-.32611-.59839,4.50507,4.81677,4.50507,4.81677,0,0,2.50995-.93225,2.703,3.57373Zm-3.99017-17.24713c-4.82684.46613-5.9209-4.97217-5.9209-4.97217-1.48029-1.24304,2.31689.1554,2.31689.1554.70789,1.55377,2.57428,1.55377,2.57428,1.55377,2.2525,1.24304,1.02972,3.263,1.02972,3.263Zm-6.04962,50.8092c5.08423,3.41833,6.56451,6.52594,6.56451,6.52594,2.38123,3.57373,5.40601,1.24304,5.40601,1.24304,4.56946,1.08765,1.28723,5.1275,1.28723,5.1275-1.22278,1.08765-.90106,3.263-.90106,3.263-1.09406,10.41046-3.73273,9.78894-3.73273,9.78894-3.28229,1.55377-6.30707,11.80884-6.30707,11.80884-.32184-1.70917.77228-6.21521.77228-6.21521,3.1535-5.43829,1.41589-6.99207,1.41589-6.99207-2.89612-5.12756.19305-9.32281.19305-9.32281,4.95557-4.35059-.51489-7.76898-.51489-7.76898-5.4704-2.64142-6.43579-6.21515-6.43579-6.21515-.70789-2.33075-3.08917-4.97217-3.08917-4.97217-6.62885-6.83673-15.18848-23.77313-15.18848-23.77313,0,0,3.60406,2.79688,5.34174,4.50604s5.14862,6.37054,5.14862,6.37054c1.73767,1.24304,3.34662,4.19525,3.34662,4.19525,1.09412,6.05981,6.69324,12.43042,6.69324,12.43042Zm-16.73303,65.72565c1.86633,1.70917,2.31689,4.50598,2.31689,4.50598,1.35144,5.43829-2.18823,5.59369-2.18823,5.59369-3.53967,2.17529-7.33679,8.23511-7.33679,8.23511l2.18817-4.35059c2.89612-3.88452,3.47534-8.70129,3.47534-8.70129.83667-5.74908-5.79224-9.94434-5.79224-9.94434-2.12378-3.10754.51489-6.05975.51489-6.05975,1.86639-1.86462,3.2179-11.96429,3.2179-11.96429,2.12378,5.43829.38611,8.70129.38611,8.70129-2.12384,2.95221-1.54456,6.37054-1.54456,6.37054,2.63867,7.14746,4.63373,3.1076,4.63373,3.1076,1.48029-2.64148,8.49524-8.23511,8.49524-8.23511,4.31201-1.55383,5.21301-5.12756,5.53485-5.43829,2.38123-1.70917,1.67328-4.97217,1.67328-4.97217,2.12378-5.90442,2.57434.93225,2.57434.93225-.32184,9.94434-6.95068,9.78894-6.95068,9.78894-2.89612.31079-9.13885,7.76898-9.13885,7.76898-3.1535,3.263-2.05939,4.66144-2.05939,4.66144Zm1.09399-139.29797l-5.0199-.93231-.11859.28644c4.30438,3.77191,8.3725,12.7655,8.3725,12.7655l-9.55713-10.37164.00305-.02435-3.1405-3.12207-.35645,6.66986.48517-.22162c1.99506,11.18738.51483,18.33484.51483,18.33484-1.73761,5.43829-3.08917,1.70917-3.08917,1.70917-.19305-1.55377,2.05951-4.19525,2.05951-4.19525.57916-10.87659-.67584-15.30493-.67584-15.30493-4.73029-.93225-7.91595,6.75903-7.91595,6.75903-3.5719,6.75903-.19312,7.69135-.19312,7.69135,2.79956,2.79681,3.08917,9.55585,3.08917,9.55585.09656,7.22516-3.47534,9.55585-3.47534,9.55585-7.24023,5.3606-10.71558,20.74316-10.71558,20.74316-1.25494,4.89447-4.82684,6.99213-4.82684,6.99213-1.83417.46613-6.95062,7.45819-6.95062,7.45819-2.79956,3.96222-7.72296,6.05981-7.72296,6.05981-7.04724,2.09766-11.87408,12.11963-11.87408,12.11963-3.18567,8.15747-7.91602,10.02203-7.91602,10.02203-3.18573,2.0976-12.74286,9.55585-12.74286,9.55585-4.15112,2.0976-5.59912,7.92438-5.59912,7.92438-2.99261,5.3606-10.90869,4.66138-11.58441,5.1275-3.76495,0-8.49524,3.96222-8.49524,3.96222-4.53723,3.72906-11.39142,3.49603-11.39142,3.49603-5.30951-1.16534-21.2381,5.1275-21.2381,5.1275-6.66101,3.96222-21.62421.93231-21.62421.93231-10.71564-3.02991-12.74292,1.16534-12.74292,1.16534-2.99261,3.96216-5.40607,1.39844-5.40607,1.39844-2.02722-1.39844-7.33679-1.16541-7.33679-1.16541-5.88879-2.0976-3.08917-5.82672-3.08917-5.82672,4.92334,2.09766,5.0199-.69922,5.0199-.69922.48273-6.52594,4.63379-6.75903,4.63379-6.75903,1.83423-.69916,2.12384,3.263,2.12384,3.263,1.49182,2.54236,6.17389-4.54401,7.01361-5.85461.04248-.07037.08569-.13922.13007-.2052,0,0-.04608.07404-.13007.2052-1.1582,1.91913-1.60754,5.38849-1.60754,5.38849-1.06195,7.69128,1.93073,1.39838,1.93073,1.39838.4826-4.89441,4.63373-7.92432,4.63373-7.92432,6.85413-4.89447,13.32214-5.12756,13.32214-5.12756,6.66101,0,11.19824-5.82672,11.19824-5.82672,2.41339-8.85669,6.2749-12.35272,6.2749-12.35272,6.46796-11.42041,11.77747-8.15741,11.77747-8.15741,4.15112-.93231,8.68835-7.22516,8.68835-7.22516,3.5719-7.45825,15.05975-13.51807,15.05975-13.51807,6.46796-3.49603,9.65369-8.3905,9.65369-8.3905,9.36407-14.45032,23.16888-25.4046,23.16888-25.4046l-15.05975,18.41254c-5.50262,12.81879-11.77753,15.14954-11.77753,15.14954-4.73029,1.16534-15.54242,13.51801-15.54242,13.51801-3.5719,9.55585-9.65369,9.08972-9.65369,9.08972-8.01257,5.82678-12.74286,18.87866-12.74286,18.87866,2.99261-.93231,7.33673,1.63147,7.33673,1.63147,3.18573,3.72913,8.30219,0,8.30219,0,6.08185-2.56378,9.8468-10.48816,9.8468-10.48816,4.53723-4.19519,2.31689,4.19525,2.31689,4.19525.67572,2.79688-2.12378,1.86456-2.12378,1.86456-8.5918,14.21729-22.78278,9.55591-22.78278,9.55591-10.90863-2.79688-16.02515,4.19525-16.02515,4.19525-2.99261,4.89441-10.23285,3.72906-10.23285,3.72906-9.75024-1.16534-10.42603,4.42834-10.42603,4.42834,6.46802-4.89447,10.23291-2.56378,10.23291-2.56378,5.69574,5.12756,22.01044,1.63153,22.01044,1.63153,9.55713-4.19525,14.67365-2.79688,14.67365-2.79688,3.37872,1.39844,6.95062-.23303,6.95062-.23303,8.97797-8.15747,15.25281-6.52594,15.25281-6.52594,4.53723.23303,5.69568-2.33075,5.69568-2.33075,2.22034-5.3606,10.32947-11.42041,10.32947-11.42041l.28955-13.98419c1.83429-3.96216,1.15851-9.32275,1.15851-9.32275-2.99268-8.15747,1.15839-10.72119,1.15839-10.72119.67578,5.82672,5.01996,6.29285,5.01996,6.29285,1.25494,4.42834,6.17841-3.96216,6.17841-3.96216,3.57178-8.6236,5.79218-7.45825,5.79218-7.45825-.48267,5.82672,2.89612,1.86456,2.89612,1.86456,3.76495-2.56378,6.3714-.69922,6.3714-.69922,4.34418.93231,5.79224-5.59363,5.79224-5.59363,3.76489-6.29291,7.72296-8.6236,7.72296-8.6236,4.34418-.46613,6.08179-3.72913,6.08179-3.72913,2.79956-3.96216,5.79224-7.92438,5.79224-7.92438,4.53723-1.39838,5.40607-10.25507,5.40607-10.25507-.67572-3.96216-5.79218-6.75903-5.79218-6.75903.28961-2.0976-1.35156-8.15741-1.35156-8.15741-1.64111-6.75903,1.93073-5.3606,1.93073-5.3606,4.34418,6.99207,5.59918,1.16534,5.59918,1.16534,4.34418-6.99207,4.24762-15.38257,4.24762-15.38257l.79376.95813-1.27649-2.35657-.27173-.14581c1.60944-1.78271,4.43945-4.42798,7.03668-4.37439,0,0,5.12988,3.37512,10.08514,5.0672,0,0,3.96625,3.40552,6.73358,5.46747l-6.5932-2.98456Zm-112.17584,72.79541s2.12378-8.5459,9.65369-11.80884c0,0-5.72784,6.37054-7.07935,10.87659,0,0-3.6684,7.76898-2.57434.93225Zm16.86182-11.03198s6.37146-12.74115,13.38641-16.15948c0,0-6.62891,11.49811-13.38641,16.15948Zm64.4223-62.22955l-7.52991,4.89441-2.89612-2.79681-1.4718,2.05005c.08081.21649.1543.46161.21686.74677,0,0,.67572,8.15747-9.07452,13.98419,0,0-5.30951,3.49603-9.46063,11.18738,0,0,2.99268-8.6236,8.4953-14.68341,0,0,4.74872-3.82611,6.28912-11.03131-.35486.00433-.7923.04236-1.2832.15167-1.15863,6.76465-16.01117,17.63867-16.01117,17.63867-4.34412,1.39838-16.02509,13.51801-16.02509,13.51801,4.15112-8.3905,12.5498-14.45032,12.5498-14.45032,9.60449-6.45233,10.30713-10.65021,10.52209-11.95514l-2.31647-.16449s-.28125-.39709-.63043-.74896c3.39899-2.46875,7.91626-5.4173,10.06653-5.63055l2.68579-1.07428,3.62579-3.24084,1.85321-2.25604,2.82007,2.73944,7.09045-4.51208,5.0224.60876.48438.37665-5.02246,4.64825Zm176.4848,150.0733l14.57983,2.65747.08521.18658-6.11633,16.20837-8.54871-19.05243Zm-.25806-2.73706l5.63422-14.75641,7.89062,17.27606-13.52484-2.51965Zm-10.81024-23.78259l5.61047-14.69427,7.85736,17.20331-13.46783-2.50903Zm-10.8103-23.78259l5.58679-14.63208,7.82416,17.13055-13.41095-2.49847Zm-10.81024-23.78259l5.56305-14.56995,7.79089,17.0578-13.35394-2.48785Zm-10.8103-23.78259l5.53937-14.50781,7.75769,16.98511-13.29706-2.47729Zm-10.81024-23.78259l5.51562-14.44562,7.72443,16.91229-13.24005-2.46667Zm-10.8103-23.78259l5.49188-14.38354,7.69128,16.8396-13.18317-2.45605Zm-10.80579-23.78174l-.15125-.3371,5.46509-14.31329,7.80786,17.09497-13.1217-2.44458Zm-10.8147-24.50409l5.29449-13.86676,7.41492,16.2345-12.70941-2.36774Zm-10.8103-23.78259l5.27081-13.80457,7.38165,16.16168-12.65247-2.35712Zm-10.70306-23.76263l-.06201-.13824,5.2019-13.62408,7.34845,16.08887-12.48834-2.32654Zm-10.65839-23.75427l-.14996-.33417,5.11426-13.39441,7.31519,16.01624-12.27948-2.28766Zm-10.65845-23.75433l-.23779-.52997,5.02655-13.16467,7.28198,15.94348-12.07074-2.24884Zm-10.65839-23.75427l-.32568-.72583,4.93884-12.935,7.24872,15.87073-11.86188-2.2099Zm-10.65839-23.75427l-.41357-.92175,4.85114-12.70526,7.21545,15.79797-11.65302-2.17096Zm-10.65845-23.75433l-.5014-1.11755,4.76337-12.47559,7.18231,15.72522-11.44427-2.13208Zm-10.65839-23.75427l-.58936-1.31348,4.67572-12.24585,7.14905,15.65247-11.23541-2.09314Zm137.96674,314.12543l-1.01416-.69952s-5.11646-2.79681-5.59906-2.79681c-.48273,0-.57928-4.19525-.57928-4.19525l-.38611-4.89447-3.28223.46613-4.63379-2.0976-4.24762-4.66138-7.14374-1.39844-.57922-6.05981-8.10913-.46619-3.08917-5.82672-8.30212-3.49603-1.35156-4.42834-10.42596-7.92438-3.28229-.46613-5.0199-6.05981-9.26758-8.3905-6.95062-4.19525-5.0199-2.33069-5.40607.69922-4.15112-3.96216s-3.05182-4.68683-3.81134-5.09644c.80676-3.02271,1.62286-7.48248,2.49579-8.25189,6.04608-5.32898,11.44324-7.2428,18.80859-9.60608,3.51282-1.12708,5.86102-3.19183,7.15369-6.62775.50903-1.35254,1.1275-2.77222,2.06732-3.83228,2.16589-2.44312,3.81598-4.89294,2.07239-8.47107.87323-.1972,1.59198-.41754,2.3269-.51453,2.27612-.30035,3.86462-1.80713,3.94269-3.80615.11249-2.88525.62268-5.66632.94922-8.4967.44452-3.85345-2.21484-6.375-5.26367-8.23431-2.1214-1.29376-5.01532-1.29547-6.28644-4.04327-.2334-.50452-1.30688-.67188-2.02448-.8891-1.1579-.35046-2.46716-.39551-3.479-.97638-.94031-.53967-2.06628-1.51233-2.25824-2.46588-.76111-3.78015-2.3465-6.69043-6.3374-7.55927-.2478-4.18872-2.0116-6.05554-5.98004-6.41125-1.3941-.125-2.65039-.28973-2.80243-2.10162-.02814-.33557-.49518-.69452-.83636-.93317-1.4754-1.03229-2.89478-2.19867-4.49969-2.97473-1.28363-.62079-2.79889-.78052-4.22498-1.08038-.56738-.11932-1.24084.09729-1.74591-.11914-1.60297-.68713-2.88757-.4986-3.74487,1.14099-5.24585-1.88556-9.91504-1.74481-13.66742,3.40784-1.97388-1.1629-4.10883-2.17218-5.94739-3.57092-2.02142-1.5379-3.89612-1.2674-5.91797-.2912-.45312.21881-.89545.45978-1.52026.7821-.56812-2.31232-2.10724-3.30048-4.19312-3.14899-1.89935.13788-3.77411.61517-6.14825,1.02783.35297-.88483.46277-2.04694.96649-2.25488,1.47156-.60767,1.46497-1.54102,1.0954-2.73358-.39117-1.26208-.79657-2.34735-2.55878-2.28796-1.20667.04071-2.07019-.60492-1.51135-2.20007.75092-2.14374-.20282-5.46033-1.71875-6.62976-1.69598-1.30847-3.99634-1.15283-6.42621.36011-1.13519-.40521-2.19598-1.13312-3.21228-1.0755-2.2785.12915-4.5462.59375-6.79144,1.05292-.48822.09985-1.02094.67316-1.26013,1.16199-.57288,1.17084-1.40985,1.20972-2.44196.82684-.76868-.28516-1.5329-.58246-2.25128-.85614-.08655-3.76788-3.04144-6.15979-6.75024-5.47241-1.03925.19269-1.67206.23425-2.49231-.71161-1.89124-2.18127-5.46033-1.99048-7.57971.05328-.66248.63879-1.4931,1.07312-2.38379,1.30475-7.12402,1.85266-13.37811,4.5896-14.07196,12.8385-.45294-.50018-.96222-1.12842-1.54346-1.68085-.26459-.25146-.65613-.40173-.95343-.61041L231.17804,59.94342l144.81274,319.05444ZM213.26959,66.65796l6.20764-13.48547,4.39478,11.51019-10.60242,1.97528Zm-4.66492,10.13397l4.45709,11.67334-10.75269,2.00323,6.29559-13.67657Zm-10.87256,23.61951l4.51935,11.83643-10.90295,2.03125,6.38361-13.86768Zm-10.87256,23.61945l4.58167,11.99957-11.05322,2.05927,6.47156-14.05884Zm-10.8725,23.61951l4.64386,12.16266-11.20343,2.08722,6.55957-14.24988Zm-10.87256,23.61945l4.70618,12.32581-11.3537,2.11523,6.64752-14.44104Zm-10.87256,23.61945l3.22723,8.45233c-.65332.67981-1.08533,1.57062-1.24017,2.71844-.08514.6311-.1861,1.26025-.29126,1.89062l-8.43127,1.57074,6.73547-14.63214Zm-10.87256,23.61951l1.59216,4.17004c-.21246.3504-.39893.70947-.52631,1.08942-1.02991,3.07324.66132,6.10138,3.61444,6.99854l.15045.39404-11.65417,2.17114,6.82343-14.82318Zm-10.87256,23.61945l4.89307,12.81519-11.8045,2.19916,6.91144-15.01434Zm-10.87256,23.61945l5.21222,13.65112-12.57446,2.34265,7.36224-15.99377Zm-11.02295,23.94629l5.16803,13.53528-12.46783,2.32281,7.2998-15.85809Zm-10.87256,23.61945l5.23035,13.69843-12.6181,2.35077,7.38776-16.04919Zm-10.87256,23.61951l5.2926,13.86151-12.76837,2.37878,7.47577-16.2403Zm-10.8725,23.61938l5.35486,14.02472-12.91864,2.40674,7.56378-16.43146Zm-10.87256,23.61951l5.41711,14.18781-13.06885,2.43475,7.65173-16.62256Zm-10.87256,23.61951l5.47943,14.35089-13.21912,2.46271,7.73969-16.8136Zm-10.87256,23.61938l5.54169,14.5141-13.36932,2.49072,7.82764-17.00482Zm-9.15228,19.88239l14.54712-2.65149-8.64398,19.11475-6.07318-16.09387.17004-.36938Zm37.72467,27.0788l6.85162,9.71167h-16.37939l9.52777-9.71167Zm10.02496,9.71167l-7.31158-10.44989h20.42218l-10.33228,10.44989h-2.77832Zm16.09906-9.80548l6.91779,9.80548h-16.53766l9.61987-9.80548Zm10.09064,9.80548l-7.31158-10.44989h20.26373l-10.33234,10.44989h-2.61981Zm16.03339-9.89935l6.98401,9.89935h-16.69592l9.71191-9.89935Zm10.15625,9.89935l-7.31158-10.44989h20.10535l-10.33234,10.44989h-2.46143Zm15.96777-9.99316l7.05017,9.99316h-16.85413l9.80396-9.99316Zm10.22192,9.99316l-7.31152-10.44989h19.94678l-10.33228,10.44989h-2.30298Zm15.9021-10.08704l7.11639,10.08704h-17.01245l9.89606-10.08704Zm10.2876,10.08704l-7.31158-10.44989h19.78839l-10.33228,10.44989h-2.14453Zm15.83643-10.18085l7.18262,10.18085h-17.17072l9.9881-10.18085Zm10.35321,10.18085l-7.31152-10.44989h19.62994l-10.33234,10.44989h-1.98608Zm15.77081-10.27466l7.24884,10.27466h-17.32898l10.08014-10.27466Zm10.41888,10.27466l-7.31158-10.44989h19.4715l-10.33228,10.44989h-1.82764Zm15.78491-10.44989h.72992l7.37244,10.44989h-18.35437l10.25201-10.44989Zm11.27008,10.44989l-7.31152-10.44989h18.80554l-10.33234,10.44989h-1.16168Zm15.12207-10.44989h.52802l7.37238,10.44989h-18.15247l10.25208-10.44989Zm11.06763,10.44989l-7.31152-10.44989h18.64703l-10.33228,10.44989h-1.00323Zm14.96429-10.44989h.68622l7.3725,10.44989h-18.31079l10.25208-10.44989Zm11.2254,10.44989l-7.31165-10.44989h18.48871l-10.33228,10.44989h-.84479Zm14.80652-10.44989h.84454l7.37244,10.44989h-18.46899l10.25201-10.44989Zm11.38312,10.44989l-7.31158-10.44989h18.33032l-10.33234,10.44989h-.6864Zm14.64886-10.44989h.49438l7.37244,10.44989h-18.1189l10.25208-10.44989Zm11.03656,10.44989l-7.31158-10.44989h19.38867l-10.33228,10.44989h-1.74481Zm15.67078-10.4176l7.34967,10.4176h-17.57001l10.22034-10.4176Zm10.51892,10.4176l-7.31158-10.44989h19.23016l-10.33228,10.44989h-1.5863Zm15.54474-10.44989h9.08215l-2.90442-6.47302,6.12115-16.25861,15.15521,33.18152h-37.70618l10.25208-10.44989ZM240.56885,47.93787l-4.63367,12.27917-4.74268-10.57001-5.5813,12.3421-4.59149-12.16748,10.24463-22.25543,9.3045,20.37164ZM34.49347,455.03021l5.92572,15.51971.76172-.72388-3.5307,7.80762h9.57715l7.37244,10.44989H19.27832l15.21515-33.05334Z"/></g></svg>