<?xml version="1.0" encoding="UTF-8"?><svg id="Layer_2" xmlns="http://www.w3.org/2000/svg" viewBox="0 0 460.87769 499.79468"><g id="Layer_22"><path d="m231.33972,0L0,499.79468h460.87769L231.33972,0ZM57.77368,488.08362l-7.31158-10.44995h20.58057l-10.33228,10.44995h-2.93671Zm278.10699-13.19568l-1.82104-.26953.19019.26953h-25.12714l-1.18707-.17572.12396.17572h-25.69501l-.55298-.08185.05774.08185h-48.43469c.16321-4.77704,1.9986-53.3288,9.39069-60.37689,0,0,.49725-15.14471,6.87158-16.09406,0,0-7.86627-12.74872-3.93323-17.2243,0,0,3.11951-9.35809,7.59509.27124,0,0,1.05701,4.82245-.00439,6.25006,1.80243-1.80798,12.43658-13.41235,16.27936-39.07117,0,0-5.01819,9.62933-9.22253,2.71252,0,0-4.20435-.40686-.2713-11.6637,0,0-8.27301-11.25684,11.66382-10.57867,0,0-.13568-4.74689-3.255-10.03619,0,0-3.39062-7.45935.54242-11.66376,0,0,1.76318,2.5769,6.23865,2.44122,0,0,2.57697,8.00189,6.78125,14.64746,0,0,5.83191,15.05432-1.89868,24.41235,0,0-2.03436.9494-.81372,2.71252,0,0,2.84808-.9494-2.16998,14.37616l-2.71252,6.51001s-3.11938.13556-1.62744,5.42493c0,0-2.5769,4.74689-2.16998,8.67999,0,0-6.10315,26.17548-1.08496,43.12848,0,0,.94934-22.10675,9.22235-32.82104,0,0-4.74677.94934-1.35626-3.255,0,0-2.30548-8.00183,2.16998-5.96747,0,0,1.49188-6.91681,3.52625,0,0,0,15.32556-22.92053,16.5462-39.87354,0,0-1.22064-10.71429,2.9837-6.78125,0,0,3.79755-17.08862-5.56061-44.62036,0,0-2.03436-5.01813-1.08502-9.49371,0,0-12.34174-6.91681-5.15369-9.22247,0,0-3.11932-14.78302,1.08502-16.81738,0,0,1.49188-9.62933,7.05249,3.79749l3.6618-14.78308s-4.47565-1.76312.54254-3.52625c0,0,2.57678-4.74683-.54254-5.69617,0,0-7.18805-3.11938.27124-2.71252,0,0-1.49188-16.41052-8.40863-24.9549,0,0,1.49176-8.00177-1.89874-16.2749,0,0-.60608-1.91595-1.61755-4.83997l128.44116,282.98431h-83.63275Zm-113.93268-70.78247l.18085-5.42505c4.24963-7.32367,7.95654-8.86072,7.95654-8.86072-1.53693,5.15369.90417,5.06329.90417,5.06329v.00415c.12292.00092,2.38861-.04761.89264-5.06323,0,0,3.70709,1.53711,7.9566,8.86078l.18097,5.42499s-7.99408,6.7439-9.03021,35.17517v.26373c-.00146-.04498-.00397-.08698-.00562-.13184-.00159.04633-.00427.08966-.00592.13611v-.27228c-1.03613-28.43127-9.03003-35.17511-9.03003-35.17511Zm-14.67102-23.14655s-10.03619-14.01453-11.5733-25.67828c0,0,6.05786,7.14294,14.64752.72339,0,0-4.79211,17.9928-3.07422,24.9549Zm-23.03583-130.91144s6.422-.81378,15.30719,7.41412c0,0-3.0791-4.9729-2.63928-10.84991,0,0,5.14984,7.85236,13.89673,4.70239,3.58966,1.2959,4.03564,4.71198,4.05151,6.1972-8.7077,7.63-14.5271,21.46106-14.5271,37.2583,0,13.15607,4.04156,24.93982,10.42065,32.92261-.24243,1.33099-1.06396,4.12268-3.74054,5.27545-6.198-9.40881-12.82721-24.48621-10.27716-43.86041,0,0,8.35742-20.16278-12.492-39.05975ZM52.90192,443.90698l-5.98608-15.8631.25812-.56067,14.33679-2.61322-8.60883,19.03699Zm10.7851-23.84943l-5.89899-15.63232.34619-.75195,14.1264-2.57483-8.57361,18.95911Zm10.78503-23.84937l-5.81189-15.40149.43427-.94336,13.91608-2.5365-8.53845,18.88135Zm10.7851-23.84943l-5.72479-15.17072.52228-1.13464,13.70575-2.49817-8.50323,18.80353Zm10.78503-23.8493l-5.6377-14.94.61035-1.32599,13.49542-2.45978-8.46808,18.72577Zm10.78503-23.84937l-5.5506-14.70923.69843-1.51727,13.28516-2.42151-8.43298,18.64801Zm10.7851-23.84943l-5.46356-14.47839.78656-1.70862,13.07477-2.38318-8.39777,18.57019Zm9.52692-21.46826l.31812-.30231-.12006.26538-.19806.03693Zm1.40637-2.70892l-5.37524-14.24445,1.08728-2.36206,12.85748-2.34351-8.56952,18.95001Zm10.7851-23.84943l-5.28815-14.01367,1.17529-2.55328,12.64716-2.30518-8.5343,18.87213Zm10.7851-23.8493l-5.20111-13.78296,1.26337-2.74457,12.43683-2.26685-8.49908,18.79437Zm10.78503-23.84943l-5.11401-13.55219,1.35144-2.93585,12.2265-2.22852-8.46393,18.71655Zm7.19769-40.29797l12.01611-2.19019-8.42871,18.63879-5.02698-13.32135,1.43958-3.12726Zm10.96021-23.80988l11.80579-2.15186-8.39355,18.56097-4.93988-13.09058,1.52765-3.31854Zm10.96021-23.80994l11.59552-2.11353-8.3584,18.48322-4.85278-12.85986,1.61566-3.50983Zm10.96021-23.80994l11.38519-2.0752-8.32324,18.40546-4.76569-12.62903,1.70374-3.70123Zm10.96021-23.80994l11.17487-2.03687-8.28802,18.32764-4.67859-12.39825,1.79175-3.89252Zm-43.08923,162.85736s2.53198-7.29114,7.14325-37.9422c0,0,1.17511,40.47388,14.55664,54.03632,0,0-14.91864-8.95123-20.97662-1.6275,0,0-3.88788-4.9729-.72327-14.46661Zm33.09229-9.40326s-.45197-36.79944,4.70172-43.76147c0,0,.31708,20.19769-.67743,24.08557,0,0,5.65027,5.1189,2.12402,9.91095,0,0-4.4303,11.12122,5.06335,28.75232,0,0,3.34534,4.79211-.72339,4.15918-.99451.45209-15.46118-2.26044-20.43408-7.05249,0,0,2.62213-2.26038-3.25494-4.7016,0,0-.63293-5.51538.72339-9.58417,0,0,6.41943,17.45032,10.66913,10.12665,0,0,2.26031-2.26038,1.80823-11.93494Zm50.84467-9.85541c-3.52625-4.79205,1.73853-9.44446,1.73853-9.44446-.99451-3.88788-.29193-24.55206-.29193-24.55206,5.15369,6.9621,4.70178,43.76147,4.70178,43.76147-.45215,9.67456,1.80817,11.93494,1.80817,11.93494,4.24969,7.32373,10.66913-10.12665,10.66913-10.12665,1.35632,4.06879.72339,9.58417.72339,9.58417-5.87701,2.44122-3.25494,4.7016-3.25494,4.7016-4.9729,4.79211-19.43958,7.50458-20.43408,7.05249-4.06873.63293-.72339-4.15912-.72339-4.15912,9.49365-17.63116,5.06335-28.75238,5.06335-28.75238Zm12.40717,75.96088c2.5766,19.57544-4.21783,34.76501-10.47003,44.15234-3.36432-.87329-4.33075-4.104-4.59735-5.5675,6.37915-7.98285,10.42059-19.76654,10.42059-32.92249,0-15.79718-5.81934-29.62817-14.52698-37.25824.01691-1.56036.50793-5.24817,4.61499-6.37433,9.04395,3.63007,14.38287-4.52533,14.38287-4.52533.43976,5.87701-2.63928,10.84991-2.63928,10.84991,8.88531-8.22791,15.30719-7.41412,15.30719-7.41412-20.84943,18.89697-12.492,39.05975-12.492,39.05975Zm-14.6676,66.80634c8.5896,6.41956,14.64746-.72333,14.64746-.72333-1.53711,11.6637-11.5733,25.67822-11.5733,25.67822,1.7179-6.9621-3.07416-24.9549-3.07416-24.9549Zm-19.73553-81.2981v-10.4071c2.84192,7.77814,6.16412,2.09705,6.16412,2.09705,2.62207,5.51538.18079,9.40332.18079,9.40332-1.53705,3.52625.36163,3.43579.36163,3.43579,2.44128.45209,2.53174-4.52081,2.53174-4.52081,2.44116,1.7179.18085,5.78662.18085,5.78662.45209.99463.18079,3.43585.18079,3.43585-1.7179,5.15375,1.62744,4.52081,1.62744,4.52081,2.98383-2.07959,3.97833.54248,3.97833.54248-2.9837-.09039-2.7124,3.07416-2.7124,3.07416.81372,3.3454-4.88257,9.04163-4.88257,9.04163-1.53705,5.33453,6.14838-.72333,6.14838-.72333-1.35626,7.86621-9.58417,14.28577-9.58417,14.28577l4.88245-2.16998c.99463,5.69623-3.255,8.67993-3.255,8.67993-2.71454,1.258-4.74542,6.02875-5.64087,7.54675v-11.29327c1.3277-1.83807,2.33435-10.66028,2.33435-21.27423,0-11.04034-1.08911-20.1424-2.49585-21.46143Zm-.86597,42.73578v11.69696l-.01727-.03937-.00519.01154v-.02307l-.5199-1.1806s-2.4411-4.9729-6.14819-6.6908c0,0-4.24963-2.98376-3.255-8.67993l4.88245,2.16998s-8.22791-6.41956-9.58417-14.28577c0,0,7.68542,6.05786,6.14838.72333,0,0-5.69629-5.69623-4.88257-9.04163,0,0,.2713-3.16455-2.7124-3.07416,0,0,.99451-2.62207,3.97833-.54248,0,0,3.34534.63287,1.62744-4.52081,0,0-.2713-2.44122.18079-3.43585,0,0-2.26031-4.06873.18097-5.78662,0,0,.09033,4.9729,2.53162,4.52081,0,0,1.89868.09039.36163-3.43579,0,0-2.44128-3.88788.18079-9.40332,0,0,4.22937,6.72894,7.21381-2.31323v10.59485c-1.40662,1.31848-2.49591,10.42078-2.49591,21.46161,0,10.6142,1.00677,19.43658,2.33441,21.27435Zm15.24384-69.29639c-.10199,1.67657-.78418,4.74945-4.29535,5.86804-3.25128-1.73724-6.76599-2.68872-10.43488-2.68872-3.66821,0-7.18231.95111-10.43323,2.68781-3.14423-1.00104-4.02106-3.56989-4.24329-5.30048,2.42682-1.4375,7.51233-4.0014,13.46863-4.39728v-.02277l.59515-.00958c.31555-.01306.63275-.02148.95258-.02148h1.93542v.05475c5.22632.3512,9.78137,2.37042,12.45496,3.82971Zm11.01526,45.32574c-.66608.32867-1.7558.44189-3.40247-.48682-.6153-18.59167-9.70471-33.49011-21.05872-34.54205-.23352-.51843-.23218-1.29425.55133-2.3974,13.07043,1.39148,23.44635,17.49902,23.90985,37.42627Zm-27.46973-37.43878c.466.51636,1.04187,1.44031.44086,2.40961-11.44971,1.06042-20.5943,16.20276-21.07068,35.01276-.65588.33777-1.73834.47412-3.38367-.43793.61066-19.77466,10.98956-35.68311,24.01349-36.98444Zm-20.6355,40.14062c.36591,18.9104,9.48895,34.19769,20.95447,35.36182.37982.57343.63409,1.37311-.00446,2.18835-13.24646-1.07953-23.82898-17.27039-24.3338-37.3631.66119-.65802,1.87854-1.39813,3.38379-.18707Zm23.95343,35.33887c11.33191-1.3064,20.33215-16.4115,20.76276-35.1156.64819-.66211,1.87091-1.44659,3.39062-.24579-.43652,20.2005-11.05634,36.50806-24.35907,37.57526-.28967-.45758-.40845-1.17224.20569-2.21387Zm51.31525-77.40686s-4.97284,20.52448,5.78674,42.49567c0,0,13.97119,29.81543-10.89337,75.2948,0,0,14.78125-29.99628,4.56421-65.71069,0,0-2.26044-8.04706-15.73248-25.49738,0,0,.2713-19.6203,16.2749-26.5824Zm-13.0199-5.60577c13.38153-13.56244,14.11743-53.46246,14.11743-53.46246,4.61127,30.65112,7.58246,37.36841,7.58246,37.36841,3.16461,9.49365-.72327,14.46655-.72327,14.46655-6.05798-7.32373-20.97662,1.6275-20.97662,1.6275Zm-31.5553-4.06873c-4.87842-.18073-7.2677-5.57416-8.32056-9.15735-1.03894,3.58203-3.42676,9.06555-8.34662,9.2478,0,0-8.22784,2.44122-9.40332-15.55157,0,0,6.60046,10.39783,10.66913,1.26581,0,0,5.33447-24.50281,7.05237-52.98389,0,0,.00446.06494.01233.17804.01184-.17419.01849-.26849.01849-.26849,1.7179,28.48108,7.05237,52.98389,7.05237,52.98389,4.06873,9.13202,10.66913-1.26581,10.66913-1.26581-1.17548,17.9928-9.40332,15.55157-9.40332,15.55157Zm-61.24237,9.76495c16.0036,6.9621,16.2749,26.5824,16.2749,26.5824-13.47205,17.45032-15.73248,25.49738-15.73248,25.49738-10.21704,35.71442,4.04443,65.05621,4.04443,65.05621-24.8645-45.47931-10.3736-74.64032-10.3736-74.64032,10.75958-21.97119,5.78674-42.49567,5.78674-42.49567Zm32.49072,83.07861c.51849-1.77869,1.8587-4.38922,5.27197-4.79346,4.45032,3.75409,9.62219,5.91492,15.14594,5.91492s10.6958-2.16083,15.146-5.91492c4.1723.49408,5.24701,4.28674,5.51111,5.8219-3.04144,3.77618-5.34357,5.77795-5.34357,5.77795-2.72717,3.16455-3.16699,7.23328-3.16699,7.23328-1.14362,19.43951-8.09357,35.62402-8.09357,35.62402l-1.75934-9.22247-1.76868-1.45416-1.76855,1.45416-1.75952,9.22247s-6.94977-16.18451-8.09351-35.62402c0,0-.43982-4.06873-3.16705-7.23328,0,0-2.7207-2.36682-6.15424-6.8064Zm41.38184-265.52557l-4.72076,12.51007-7.34534-16.37048,11.23853,2.04846.82758,1.81195Zm10.83386,23.72015l-4.80792,12.74103-7.43335-16.56659,11.44696,2.08643.79431,1.73914Zm10.83386,23.72009l-4.89508,12.97192-7.5213-16.76263,11.65533,2.12445.76105,1.66626Zm10.83386,23.72015l-4.98224,13.20288-7.60931-16.9588,11.86371,2.16241.72784,1.59351Zm10.8338,23.72003l-5.0694,13.4339-7.69727-17.15485,12.07214,2.20038.69452,1.52057Zm10.8338,23.72009l-5.15649,13.66479-7.78522-17.35089,12.28052,2.2384.66119,1.44769Zm10.83386,23.72015l-5.24365,13.89575-7.87323-17.547,12.48895,2.27631.62793,1.37494Zm10.83386,23.72009l-5.33081,14.12671-7.96124-17.7431,12.69733,2.31427.59473,1.30212Zm10.83386,23.72015l-5.41797,14.35767-8.04926-17.93933,12.90576,2.35236.56146,1.22931Zm10.98273,24.0462l-5.50629,14.59174-7.9328-17.67975,13.12103,2.3916.31805.69641Zm10.83386,23.72009l-5.59344,14.82269-8.02075-17.87579,13.32941,2.42957.28479.62354Zm10.83386,23.72015l-5.6806,15.05359-8.10876-18.0719,13.53784,2.46753.25153.55078Zm10.8338,23.72003l-5.76776,15.28455-8.19672-18.26788,13.74622,2.50549.21826.47784Zm10.83386,23.72015l-5.85492,15.5155-8.28473-18.46405,13.95465,2.54352.185.40503Zm10.8338,23.72009l-5.94202,15.74646-8.37268-18.66016,14.16302,2.58154.15167.33215Zm10.83386,23.72015l-6.02917,15.97742-8.46069-18.85626,14.3714,2.61951.11847.25934Zm-3.83118,20.8761l14.57983,2.65741.08521.18658-6.11633,16.20837-8.54871-19.05237Zm-.25806-2.73712l5.63422-14.75635,7.89062,17.27606-13.52484-2.51971Zm-10.8103-23.78259l5.61053-14.69421,7.85736,17.20331-13.4679-2.50909Zm-10.81024-23.78259l5.58679-14.63208,7.82416,17.13055-13.41095-2.49847Zm-10.81024-23.78259l5.56305-14.56995,7.79089,17.0578-13.35394-2.48785Zm-10.8103-23.78259l5.53937-14.50775,7.75769,16.98505-13.29706-2.47729Zm-10.81024-23.78253l5.51556-14.44574,7.72449,16.91235-13.24005-2.46661Zm-10.8103-23.78259l5.49188-14.38354,7.69122,16.83954-13.18311-2.45599Zm-10.80573-23.78174l-.15131-.33716,5.46509-14.31323,7.80786,17.09491-13.12164-2.44452Zm-10.81482-24.50415l5.29456-13.8667,7.41492,16.2345-12.70947-2.3678Zm-10.81024-23.78259l5.27081-13.80457,7.38165,16.16174-12.65247-2.35718Zm-10.70306-23.76263l-.06201-.13824,5.2019-13.62415,7.34845,16.08899-12.48834-2.3266Zm-10.65839-23.75427l-.14996-.33417,5.11426-13.39441,7.31519,16.0163-12.27948-2.28772Zm-10.65845-23.75433l-.23779-.52991,5.02655-13.16473,7.28198,15.94348-12.07074-2.24884Zm-10.65839-23.75427l-.32568-.72589,4.93878-12.935,7.24878,15.87079-11.86188-2.2099Zm-10.65839-23.75427l-.41357-.92169,4.85114-12.70532,7.21545,15.79797-11.65302-2.17096Zm-10.65839-23.75427l-.50146-1.11755,4.76337-12.47565,7.18231,15.72522-11.44421-2.13202Zm-10.65845-23.75427l-.58936-1.31348,4.67572-12.24585,7.14905,15.65247-11.23541-2.09314Zm44.49243,108.18103c.45575,9.20496,1.41827,42.47137-8.27167,45.39001,0,0-4.74677,3.66187-4.33997-6.50995,0,0-3.39062,13.9693-7.05237,2.16998,0,0-1.76324-6.10309-.5426-8.95123,0,0,2.30566-15.05426-9.76495-40.14478,0,0,2.5769,56.8266-9.22235,43.12854,0,0-9.49384-7.59497-9.62933-36.48291l-3.25378-39.58655v-.02356l-.00085.01178-.00031-.00403v.008l-3.25378,39.58655c-.1355,28.888-9.62933,36.48297-9.62933,36.48297-11.79926,13.69806-9.22235-43.12854-9.22235-43.12854-12.07056,25.09052-9.76495,40.14478-9.76495,40.14478,1.22046,2.84814-.54254,8.95123-.54254,8.95123-3.66193,11.79932-7.05243-2.16998-7.05243-2.16998.4068,10.17181-4.33997,6.50995-4.33997,6.50995-8.9256-2.68842-8.81287-31.1236-8.38342-42.78748l52.92847-115.7049,51.3385,113.11011Zm-69.24689-106.39557l6.20764-13.48541,4.39478,11.51019-10.60242,1.97522Zm-4.66492,10.13403l4.45703,11.67334-10.75262,2.00323,6.29559-13.67657Zm-10.87256,23.61951l4.51935,11.83643-10.90295,2.03119,6.38361-13.86761Zm-10.87256,23.61945l4.58167,11.99951-11.05322,2.05927,6.47156-14.05878Zm-10.8725,23.61945l4.64386,12.16266-11.20343,2.08722,6.55957-14.24988Zm-10.87256,23.61951l4.70618,12.32574-11.3537,2.11523,6.64752-14.44098Zm-10.87256,23.61945l4.76843,12.48889-11.50391,2.14319,6.73547-14.63208Zm-10.87256,23.61951l4.83075,12.65198-11.65417,2.1712,6.82343-14.82318Zm-10.87256,23.61945l4.89307,12.81512-11.8045,2.19922,6.91144-15.01434Zm-10.87256,23.61951l5.21222,13.65106-12.57446,2.34259,7.36224-15.99365Zm-11.02295,23.94617l5.16803,13.53534-12.46783,2.32275,7.2998-15.85809Zm-10.87256,23.61945l5.23029,13.69849-12.61804,2.35071,7.38776-16.04919Zm-10.87256,23.61951l5.2926,13.86151-12.76831,2.37878,7.47571-16.2403Zm-10.8725,23.61945l5.3548,14.02466-12.91858,2.40674,7.56378-16.4314Zm-10.87256,23.61951l5.41711,14.18774-13.06885,2.43475,7.65173-16.6225Zm-10.87256,23.61945l5.47943,14.35089-13.21912,2.46277,7.73969-16.81366Zm-10.87256,23.61945l5.54169,14.51404-13.36932,2.49072,7.82764-17.00476Zm-9.15222,19.88232l14.54706-2.65143-8.64398,19.11469-6.07318-16.09381.1701-.36945Zm130.84015-251.17059c-1.86566,6.93994-.76477,12.88837-.76477,12.88837-6.91687,8.54431-8.40863,24.95483-8.40863,24.95483,7.45929-.40686.27124,2.71246.27124,2.71246-3.11945.9494-.54254,5.69623-.54254,5.69623,5.01819,1.76312.54254,3.52625.54254,3.52625l3.6618,14.78302c5.56061-13.42676,7.05249-3.79742,7.05249-3.79742,4.20435,2.03436,1.08502,16.81738,1.08502,16.81738,7.18805,2.3056-5.15369,9.22247-5.15369,9.22247.94934,4.47559-1.08502,9.49371-1.08502,9.49371-9.35815,27.53174-5.56061,44.62042-5.56061,44.62042,4.20435-3.93317,2.9837,6.78119,2.9837,6.78119,1.22064,16.95306,16.5462,39.87354,16.5462,39.87354,2.03436-6.91681,3.52612,0,3.52612,0,4.47565-2.03436,2.17017,5.96747,2.17017,5.96747,3.39044,4.20435-1.35632,3.255-1.35632,3.255,8.27301,10.71429,9.22241,32.82111,9.22241,32.82111,5.01819-16.95306-1.08502-43.12854-1.08502-43.12854.40692-3.93311-2.16998-8.67999-2.16998-8.67999,1.49194-5.28931-1.62744-5.42499-1.62744-5.42499l-2.71252-6.50995c-5.01807-15.32556-2.16998-14.37616-2.16998-14.37616,1.22064-1.76312-.81372-2.71246-.81372-2.71246-7.73059-9.35809-1.89868-24.41241-1.89868-24.41241,4.20428-6.64557,6.78125-14.6474,6.78125-14.6474,4.47546.13556,6.23865-2.44128,6.23865-2.44128,3.93304,4.20435.54242,11.6637.54242,11.6637-3.11932,5.28937-3.25494,10.03619-3.25494,10.03619,19.93677-.6781,11.66376,10.57874,11.66376,10.57874,3.93304,11.25677-.2713,11.6637-.2713,11.6637-4.20428,6.91681-9.22247-2.71252-9.22247-2.71252,3.84271,25.65881,14.47687,37.26318,16.2793,39.07123-1.0614-1.42767-.00439-6.25012-.00439-6.25012,4.47559-9.62933,7.59491-.27124,7.59491-.27124,3.93323,4.47559-3.93304,17.22424-3.93304,17.22424,6.37433.9494,6.87158,16.09412,6.87158,16.09412,7.39569,7.05157,9.22931,55.64832,9.39099,60.38464H41.36426l125.6897-274.7655Zm-93.11554,278.24951l6.85162,9.71167h-16.37952l9.52789-9.71167Zm10.02496,9.71167l-7.31158-10.44995h20.42212l-10.33234,10.44995h-2.7782Zm16.09906-9.80566l6.91785,9.80566h-16.53778l9.61993-9.80566Zm10.09064,9.80566l-7.31165-10.44995h20.26379l-10.3324,10.44995h-2.61975Zm16.03339-9.89941l6.98401,9.89941h-16.69604l9.71204-9.89941Zm10.15631,9.89941l-7.31165-10.44995h20.10529l-10.3324,10.44995h-2.46124Zm15.96771-9.99329l7.05023,9.99329h-16.85431l9.80408-9.99329Zm10.22192,9.99329l-7.31158-10.44995h19.94684l-10.33234,10.44995h-2.30292Zm15.9021-10.08716l7.11639,10.08716h-17.01251l9.89612-10.08716Zm10.2876,10.08716l-7.31158-10.44995h19.78833l-10.33234,10.44995h-2.14441Zm15.83643-10.18091l7.18262,10.18091h-17.17078l9.98816-10.18091Zm10.35327,10.18091l-7.31165-10.44995h19.63l-10.3324,10.44995h-1.98596Zm15.34937-9.84521l.17712.18774v.00916l.39252-.41638,7.10059,10.0647h-17.32904l9.65881-9.84521Zm10.84027,9.84521l-7.31158-10.44995h19.4715l-10.33234,10.44995h-1.82758Zm15.78497-10.44995h.7298l7.3725,10.44995h-18.35443l10.25214-10.44995Zm11.27002,10.44995l-7.31158-10.44995h18.8056l-10.3324,10.44995h-1.16162Zm15.12207-10.44995h.52789l7.3725,10.44995h-18.15253l10.25214-10.44995Zm11.06763,10.44995l-7.31165-10.44995h18.64722l-10.33234,10.44995h-1.00323Zm14.96429-10.44995h.68622l7.3725,10.44995h-18.31079l10.25208-10.44995Zm11.2254,10.44995l-7.31165-10.44995h18.48877l-10.33234,10.44995h-.84479Zm14.80658-10.44995h.84448l7.37244,10.44995h-18.46906l10.25214-10.44995Zm11.38312,10.44995l-7.31165-10.44995h18.33032l-10.3324,10.44995h-.68628Zm14.6488-10.44995h.49432l7.3725,10.44995h-18.1189l10.25208-10.44995Zm11.03662,10.44995l-7.31165-10.44995h19.38867l-10.33234,10.44995h-1.74469Zm15.67072-10.41772l7.34967,10.41772h-17.57007l10.2204-10.41772Zm10.51898,10.41772l-7.31165-10.44995h19.23022l-10.33234,10.44995h-1.58624Zm15.54468-10.44995h9.08215l-2.90442-6.47308,6.12115-16.25854,15.15521,33.18158h-37.70618l10.25208-10.44995ZM240.56885,47.93787l-4.63367,12.27911-4.74268-10.57001-5.5813,12.3421-4.59149-12.16748,10.24463-22.25543,9.3045,20.3717ZM34.49347,455.03021l5.92572,15.51965.76172-.72388-3.5307,7.80768h9.57715l7.37244,10.44995H19.27832l15.21515-33.05341Z"/></g></svg>