<?xml version="1.0" encoding="UTF-8"?><svg id="Layer_2" xmlns="http://www.w3.org/2000/svg" viewBox="0 0 460.87775 499.79469"><g id="Layer_23"><path d="m164.72266,388.79313c.67665.73687,1.52253.96633,2.30448.68725.44464-.15868.59581-.40145.39243-.85652-.44445-.99453-1.14905-1.70771-2.25843-2.08426.77472.95674.16181,1.62165-.43849,2.25352Z"/><path d="m231.33974,0L0,499.79469h460.87775L231.33974,0ZM57.77379,488.08356l-7.31162-10.44992h20.58057l-10.33233,10.44992h-2.93662Zm278.10697-13.19562l-1.82107-.26955.19018.26955h-25.12714l-1.18706-.17571.12396.17571h-25.69493l-.55305-.08186.05776.08186h-9.07528c14.90481-5.36181,30.28918-14.4529,45.62889-28.55552,0,0,9.76986-13.02249,26.37681-27.11903,15.4868-13.90461,28.85355-21.36807,37.95774-25.30685l36.75592,80.9814h-83.63272Zm-154.49748-136.16111c-.10915-.91445.38146-1.28066,1.24314-.96787.28147.1022.60016.18721.89089.16057.59897-.05481.91465.22524.93176.76498.02934.92617-.00053,1.8559-.05417,2.78133-.00831.14335-.25664.35458-.4254.39175-.54551.12015-.81882.42107-.94187.96464-.05162.22803-.32082.56801-.49261.56889-.24276.00125-.53154-.22277-.72137-.42492-.42764-.4554-.84002-.9338-1.19058-1.44911-.16445-.24171-.27809-.61342-.21974-.88418.05732-.2659.3354-.51054.5679-.7023.13504-.11138.37103-.10033.59092-.15112-.06345-.36731-.13772-.70802-.17887-1.05266Zm7.10117-5.03615c-.01966-.21712.00574-.44429.04753-.65983.10311-.53169.47374-.89375.96987-.75055.25928.07484.57377.60403.54995.9031-.10852,1.3634-.29452,2.7239-.534,4.07101-.05309.2988-.43591.539-.66691.80615-.20672-.24173-.44728-.46255-.61272-.72986-.28915-.46723-.53359-.96224-.79375-1.44722-.11083-.20659-.21402-.41724-.40697-.79493.31855-.25169.58846-.6249.91709-.68688.48645-.09174.56726-.29861.52991-.71099Zm9.30006,28.33516c-.00781.74923-.03488,1.50161-.11406,2.24616-.32124,3.02029-.08703,6.00314.44337,8.9859.33637,1.89144.52263,3.81001.76208,5.71817.30978,2.46889,1.0812,4.77383,2.40051,6.88954.11712.18778.23018.37809.34462.56752.41988.69502.49921,1.36839-.21591,2.04692.5048.35161.91735.68767,1.37413.94541.63381.35764.74969.84638.57053,1.50955-.47757,1.76771-.87644,3.55814-1.40132,5.31118-.55206,1.84394-.28695,3.62443.16882,5.42264.35942,1.41803.7864,2.79683,1.53933,4.07303.89197,1.51184.96411,3.22546.87431,4.90502-.12717,2.3781.31398,4.6616.79293,6.96258.58463,2.8086,1.13572,5.62731,1.57656,8.46107.16376,1.05252-.01715,2.16027-.06138,3.242-.00781.19112-.06954.41605-.18622.56112-1.11329,1.3841-.58015,2.87849-.212,4.30128.30186,1.16654.78704,2.29938,1.30415,3.39365,1.1227,2.37572,1.36971,4.82393.81684,7.37318-.15886.73243-.26718,1.47997-.48386,2.19478-.33204,1.0953-.79249,1.16735-1.71266.51689-.74376-.52571-.96607-1.15959-.95615-2.03128.01559-1.3722-.04155-2.74946-.15853-4.11684-.04709-.55065-.24435-1.13335-.52617-1.61127-1.31493-2.23008-2.67241-4.43539-4.03804-6.63508-.53145-.85601-.73586-1.77125-.78746-2.76681-.12499-2.41267-.72405-4.70818-1.96312-6.79763-.72812-1.22788-.97453-2.58723-1.29685-3.94054-.12209-.5126-.48714-.96418-.71565-1.4556-.18708-.40224-.46855-.81858-.48016-1.23503-.07713-2.76921-.04095-5.54207-.1452-8.30987-.08162-2.16683-.31704-4.32774-.47396-6.49199-.04003-.55206-.04652-1.10676-.0596-1.66047-.02243-.94834-.4276-1.6151-1.30332-2.05492-1.20478-.60517-2.36195-1.30437-3.55332-1.93737-.66634-.35401-.94838-.84765-.87389-1.61609.141-1.45439.25469-2.91335.30734-4.37304.01443-.39956-.21934-.8115-.35539-1.21226-.18637-.54913-.54656-1.0907-.55463-1.6396-.02802-1.90224.06772-3.80616.10975-5.70959.09105-4.12161.05105-8.25099.29999-12.36292.28741-4.74753.76854-9.48608,1.27545-14.21678.51366-4.79389,1.16726-9.57271,1.74934-14.35939,1.05661-8.68919,2.48734-17.30841,4.54978-25.82414.64373-2.65783,1.31249-5.26668,2.75188-7.61898.08072-.13194.12123-.30393.23084-.39947.23887-.20828.52648-.54087.76357-.51713.2101.02107.52215.44376.54315.70868.16035,2.02442.36905,4.05438.35502,6.08117-.02373,3.43352-.17003,6.86731-.32216,10.29846-.10887,2.45549-.3001,4.90762-.47521,7.35979-.18138,2.53979-.36195,5.08013-.59059,7.61595-.20665,2.29142-.4801,4.57677-.71987,6.86524-.24666,2.35436-.519,4.70657-.72346,7.06466-.20654,2.38205-.35995,4.76915-.50082,7.15615-.04141.70181.064,1.41104.05666,2.11639Zm32.07534-67.37536h.0049c13.10479-.10737,21.54488,3.39402,21.54488,3.39402-18.32603-5.92902-21.18458,11.3393-21.54488,19.39116v.10506c-.00073-.0172-.00167-.03523-.00244-.05252-.00077.01729-.00174.03532-.00246.05252v-.10506c-.3603-8.05186-3.21884-25.32018-21.54488-19.39116,0,0,8.44007-3.50139,21.54488-3.39402Zm24.12309,95.61742c.19759,1.24154.29311,2.51575.64745,3.71238.67492,2.27948.37075,4.48666-.16906,6.71467-.45335,1.87119-1.0062,3.69722-1.79377,5.46768-.32115.72205-.3522,1.65314-.26335,2.46145.2037,1.85289.02078,3.65509-.278,5.47809-.24644,1.50359-.21083,3.05695-.50257,4.54868-.41412,2.11716-.9731,4.20934-1.55008,6.29002-.33525,1.20903-.55023,2.38381-.37921,3.65392.5273,3.91591-.3012,7.64441-1.65765,11.29877-.61274,1.65077-1.24472,3.31229-1.6396,5.0217-.55446,2.4002-.3023,4.83959.03363,7.26522.25455,1.83824.42333,3.68845.62286,5.53415.11536,1.06719.3718,2.08118.95874,3.00174.36793.57711.70656,1.17615,1.01485,1.78728.38977.77272.13673,1.16231-.7412,1.19759-1.19997.04825-2.04628-.58336-2.77114-1.44915-1.85597-2.21691-2.77541-4.84034-3.36415-7.62162-.41581-1.96433-.90822-3.91232-1.35265-5.87076-.10225-.4506-.14795-.91407-.20694-1.29034.29166-3.57668.76907-7.0265,1.8804-10.36804.34732-1.04434.58173-2.12748.8374-3.2001.05903-.24756.03928-.53627-.0225-.78675-.57863-2.34581-1.20206-4.681-1.74475-7.03488-.1295-.56172-.08727-1.19625.0157-1.77233.35304-1.97544.718-3.95143,1.17171-5.90555.64058-2.75913,1.97986-5.16059,4.05482-7.09905,1.23234-1.1513,1.92281-2.43486,1.673-4.17198-.33373-2.32058.24457-4.56498.63161-6.83087.62328-3.64849,1.68864-7.13242,3.53263-10.35744.2224-.38898.35959-.99439.93545-.86217.6026.13834.35742.75449.42639,1.1877Zm7.15098-26.29528c-.1944-1.95776-.4342-3.91111-.6169-5.86984-.27347-2.93165-.51399-5.86638-.76472-8.80015-.23753-2.77919-.49015-5.55726-.69961-8.33861-.23465-3.11501-.43921-6.23244-.6368-9.35009-.20599-3.25023-.41937-6.50052-.57238-9.75348-.1739-3.69725-.33135-7.39658-.40156-11.0968-.03209-1.69137.16196-3.38701.25332-5.07838.8731-.16106,1.16995.2601,1.43444.70909,1.346,2.28493,2.26133,4.73237,2.82078,7.32515,1.0333,4.78907,2.17127,9.55686,3.12038,14.3622.49589,2.51063.69746,5.08049,1.0053,7.62681.2734,2.26149.4995,4.52862.76557,6.79103.31262,2.65838.65266,5.31351.96816,7.97156.28948,2.43851.61001,4.87474.82883,7.31985.22304,2.49251.33386,4.99495.50233,7.49247.44057,6.5307.44924,13.07028.41931,19.61103-.00183.39626.07117.79379.12178,1.18915.09723.75966-.05443,1.41075-.5591,2.04052-.25343.31625-.33589.8669-.30314,1.29692.10073,1.32186.28732,2.63753.45423,3.95389.12024.9483-.2284,1.60592-1.08408,2.06555-1.16922.62796-2.29742,1.33182-3.45204,1.98762-.8947.50818-1.29549,1.26643-1.32428,2.28805-.06862,2.43629.00352,4.8951-.31649,7.30019-.27751,2.08607-.02026,4.15201-.20069,6.21984-.0825.94528-.06059,1.89976-.14489,2.84482-.02681.30041-.21723.5995-.37855.87211-.44456.75117-1.01357,1.44546-1.35058,2.2398-.6028,1.4208-1.21677,2.86506-1.56104,4.36051-.47383,2.05827-.69812,4.17376-1.03686,6.26352-.07337.4525-.11476.92511-.28059,1.34513-.65244,1.65229-1.55811,3.15592-2.56968,4.6252-.90609,1.31609-1.67606,2.76259-2.26173,4.24788-.31319.79423-.1161,1.79177-.13819,2.69782-.0124.50977-.05483,1.02661.00787,1.52884.17159,1.3744-.56198,2.19854-1.61767,2.87502-.34541.2213-.62226.16715-.77514-.15281-.29045-.60784-.58498-1.22979-.74826-1.87851-.24204-.96147-.51003-1.95092-.51315-2.92923-.00383-1.20226.16326-2.42477.41651-3.60415.55098-2.56585,1.22788-5.10448,1.79388-7.66735.11307-.5121.1278-1.16711-.09765-1.61127-.86782-1.7096-.64852-3.4178-.27371-5.17908.74378-3.49548,1.49052-6.99217,2.1187-10.50933.19013-1.06462.16893-2.23637-.0616-3.29217-.47007-2.15293.11883-4.08699.75876-6.08399.67815-2.11615,1.32953-4.26677,1.68741-6.45231.35966-2.19643.12226-4.4189-.97687-6.45297-.11544-.21365-.21683-.43578-.31134-.65965-.44075-1.04403-.32878-1.45934.62286-2.04848.59152-.36624.80989-.8462.81238-1.54485.00198-.5525.06596-1.21495.36925-1.63663,1.16575-1.62075,1.80105-3.46231,2.22632-5.35074.4545-2.01802.6452-4.09478.97007-6.14291.21428-1.35102.48854-2.69285.68679-4.04595.16324-1.11417.23225-2.24193.3861-3.35773.08021-.5818.26234-1.14896.3808-1.72634.05644-.27518.12433-.56405.09717-.83776Zm.74782,80.6705c.30235-.83004.36852-1.72812.20155-2.7329-.40732.33954-.70474.59629-1.01148.84145-.3881.3102-.6308.66904-.77068,1.0591-.07476.00768-.10209.05802-.05914.16724-.12297.44939-.1134.93822-.0117,1.44781.05105.25585.29421.5785.52228.65657.02771.00948.06391.00427.10297-.00691-.06924.9528-.40855,1.97836-.65385,2.61404-.20678-.01348-.43015-.05905-.67692-.14967-.11001-.0404-.33679.14698-.46818.27177-.38493.36558-.72352.78312-1.12671,1.12567-.05692.04839-.10915.08494-.1635.12699-.5298-.71899-.41379-1.6207-.18569-2.3111.91487-.70038,1.22981-2.24132.7127-3.59724-.99457.16552-1.37097.85876-1.48797,1.75803-.09141.70256-.26944,1.44047.43985,1.92613-.08063,1.01703-.49551,2.1511-.68956,2.63384-.28484-.05366-.58237-.21193-.93464-.47922-.12173-.09237-.24655-.18065-.4199-.30732-.47438.57381-.92494,1.1449-1.40339,1.69155-.73364.83824-1.29335.78205-1.88364-.14575-.32016-.50319-.2421-.93226.21369-1.27967.4574-.3486.93627-.67001,1.41524-.98907,1.22126-.81359,1.91599-1.94093,1.77182-3.41382-.18354-1.8751.57201-2.99352,2.3369-3.63362,1.06937-.38786,2.06148-1.01087,3.04987-1.59341.91407-.53875,1.19911-1.36806,1.05943-2.43983-.40492-3.10641-.50834-6.22382-.0609-9.33791.04218-.29357.22911-.56633.44719-.8279.76087,5.31008.90292,10.67417,2.27583,15.89036.71769-.4717.94429-1.23931.66357-2.25319-.29515-1.06585-.43446-2.1266-.03673-3.19212.25297-.67773.61454-1.28313,1.30626-1.60502.68052-.31669,1.39276-.06136,1.74616.61109.44082.83879.293,1.57615-.37715,1.97297-.33604.19898-.94858.4773-.92329.63999.08331.53563.39707,1.03653.63267,1.54601.0342.07392.12503.12167.23386.22253.76348-.49127,1.02609-1.28576,1.06939-2.08547.04082-.75389-.083-1.54245-.27901-2.27719-.26955-1.01038-.14762-1.93183.36547-2.8033.12495-.21224.43323-.31655.65723-.47051.10838.22451.26755.43844.31682.67522.29564,1.4214.56598,2.84799.8577,4.33856.72101-.51212.86252-1.18275.7233-2.00216-.17261-1.01582-.26995-2.05022-.30945-3.08009-.01608-.41863.17859-.85597.32548-1.26764.20753-.5818.67023-.8985,1.26876-.90972.63737-.01194,1.21418.25491,1.43361.87833.16988.48258.1995,1.02954.19968,1.54791.00004.15992-.2756.38533-.47187.46424-.27696.11133-.5975.11428-.95276.17225-.06347.7632.28385,1.34966.84642,1.81473.31147.2575.67335.24554.92573-.11775.56189-.80881.82192-1.65922.31152-2.60485-.65193-1.20786-.73797-2.48584-.42637-3.80158.34365-1.45087,1.09475-1.84471,2.47524-1.31418.11397.04381.22952.08347.50011.18147-.44445-1.06202-.83342-1.98681-1.21879-2.91311-2.30714-5.5458-4.61475-11.09141-6.91682-16.63933-.13478-.32476-.26782-.66297-.31312-1.00662-.02215-.16801.11751-.4495.26168-.51949.12534-.06081.40963.05472.53416.18076.16269.16464.24837.41135.34805.63139,3.09088,6.82482,6.17794,13.65135,9.27191,20.47474.19744.43543.44572.84779.72337,1.3707.42912-.78783.33738-1.45032.04414-2.1123-.96651-2.18194-1.92531-4.36741-2.90689-6.54257-2.59931-5.76007-5.21014-11.51494-7.8105-17.27454-.107-.237-.2257-.5062-.20801-.75095.01608-.22268.21063-.43246.32654-.64793.18578.12816.45265.21442.54414.39138.55824,1.07962,1.0812,2.17767,1.6076,3.27361,2.52627,5.25965,5.04912,10.52094,7.57658,15.78004.1326.27591.29601.53697.48977.88526.20441-.2674.34455-.48962.52329-.67452.21272-.22002.44429-.55952.69262-.58292.93875-.08846.89276-.78392.98151-1.41003.15587-1.09977.3186-1.38342,1.2489-2.05455-.10942-.12835-.19902-.27391-.32454-.3747-2.17435-1.74611-3.45466-4.05882-4.19111-6.69521-.57001-2.04061-1.09158-4.09544-1.58571-6.15569-.06528-.27224.07852-.80705.2659-.88575.47671-.20016.6033.27048.72456.62871.88445,2.61299,1.73661,5.23745,2.66179,7.83593.54916,1.54239,1.63764,2.66399,3.08429,3.42347.71404.37488,1.00106.22785,1.15123-.56013.07427-.38968.06809-.8016.1913-1.17254.07654-.2304.32726-.40292.49978-.60141.17584.19313.40747.35887.51797.58406.51205,1.04353.96277,2.118,1.49939,3.14807.14368.27576.51285.43404.77536.64375.80177-.94742.73353-1.88801-.18323-2.77288-.91117-.87943-1.52721-1.90673-1.61785-3.17725-.10267-1.43897.32962-2.14675,1.78874-2.00295.12747.01256.25847-.01073.47682-.02193-.15239-.43541-.30235-.81849-.41975-1.21129-.13207-.44189-.26612-.88718-.34389-1.34051-.17032-.99272.12976-1.42184,1.11919-1.68739.12143-.03259.23771-.08432.35229-.12569-.14357-.58861-.33421-1.13443-.39144-1.69388-.034-.33215.14225-.68582.22398-1.0298.27384.17859.60141.30912.81178.54443.73771.82522,1.42949,1.69128,2.15165,2.53069.17887.2079.40664.37367.66115.60319.21222-.76282-.13146-1.22953-.564-1.66018-3.15724-3.14334-6.3039-6.29741-9.47761-9.42404-2.57366-2.53548-5.18177-5.03599-7.76992-7.55685-.23643-.23029-.48681-.46994-.63889-.75433-.09193-.17188-.08292-.49274.02487-.64397.07524-.10555.41968-.10058.59851-.03.21512.08485.39056.28251.56878.44693,4.59397,4.23791,9.18538,8.47862,13.78102,12.71469.18195.16768.40145.29463.64008.46708.04535-.15996.07278-.22038.07869-.28281.15231-1.61408.91966-2.20103,2.54355-1.94311,1.95067.30982,3.73173,2.35384,3.70435,4.2936-.01689,1.19788-.2262,1.82478-1.28139,1.94746l-1.31526-1.75366c.14782-.21059.41522-.39914.94383-.77094-.3866-1.30943-1.17516-1.73091-2.68955-1.40174-.12976,1.24939.60267,2.73481,1.51762,3.1155.01841-.17709.03347-.32113.05248-.44361l1.06389,1.2767c-.11727,0-.23975-.00279-.3733-.01119.29203.3786.52199.6856.76113.98529,1.31154,1.64353,2.70732,3.22775,3.91316,4.94538,1.01852,1.45089,1.75519,3.08895,1.82151,4.91518.02538.69803-.09165,1.40847-.21085,2.1017-.06666.38761-.31992.71879-.79795.59295-.4879-.12846-.48652-.48599-.35621-.89683.26727-.8424.13456-1.67448-.17305-2.46985-.93024-2.40539-2.33395-4.51334-4.09971-6.38512-.07302-.0774-.17151-.13075-.38896-.2928,0,.333.04971.57038-.01073.77525-.11386.3859-.19049.88075-.46587,1.09801-.41073.32399-.50227.65609-.49156,1.12064.00413.17931-.00202.3524-.02083.5174-1.09446-.16183-1.64901-1.02131-1.92573-1.75968.00506-.06152.01168-.12378.01223-.18389.01097-1.16385-.52782-1.52101-1.54654-1.02743-.18765.09092-.3683.1964-.55272.29546.03365.05767.06789.10735.10183.16046-.12457.08536-.10856.17076.1679.24138.3864.50853.8356.7685,1.554.90785.71835.87299,1.17641,2.15875,1.34502,2.68911-.15884.0761-.34391.13414-.55974.17089,0,.52046.0066,1.00667-.00134,1.49259-.01696,1.03968-.408,1.8378-1.34981,2.24323-.78231-.83455-.67393-2.09209-.55411-2.72179.51236-.6765.21052-1.8254-.61217-2.25388-.12259.82427-.66033,1.1992-1.46391,1.24336.27868.51032.6725.88698,1.11012,1.06634.69084.81117.7758,2.36017.75159,3.33605-.01163.06451-.02006.13264-.02305.20865-.01902.48291-.15664.95995-.20027,1.44337-.0863.95659-.50196,1.6271-1.47612,1.89334-.12398.03389-.2824.22875-.29045.35744-.06281,1.00693-.32685,1.90858-.71835,2.74376l-.75249-3.01004c.23018-.78988-.23296-1.78434-1.09147-2.48048-.15864.13654-.32243.27749-.54982.47319.45441.87246.88674,1.70254,1.33217,2.55778.00194-.00211.00332-.00444.00526-.00658l.71882,3.1149c-.61531,1.08714-1.42872,2.07126-2.26413,3.04529-.54164-1.06792-.35374-2.43081-.14485-3.28069.77945-.71662.71613-1.61617-.1622-2.65957-.30527-.36263-.70441-.83905-1.13408-.51452-.29139.22013-.2826.84154-.3976,1.28618-.01388.05362.02987.1282.06004.18624.04038.07764.08129.15525.12173.23287-.0499.07194.01652.22772.26256.50218.18081.34594.36149.69203.54287,1.03829.35478,1.32381.10777,3.25335-.07685,4.30898-.34127.41014-.67997.82245-1.01586,1.23694-.0576.07108-.12081.14258-.1845.21477l-.48958-2.69258c1.00838-.82645.65855-2.27418-.80182-3.15786-.72337.65213-.45491,2.35113.5271,3.28293l.48458,2.90768c-.09796.13612-.17516.27646-.20082.42388-.17865,1.02538-1.04603,1.34077-1.73419,1.82223-.24303.17005-.6502.10555-1.11901.16559-.17692.45947-.37479,1.0205-.60755,1.56669-.21409.50233-.52057.87543-.94761,1.04344-1.16795-.81889-.93895-1.98144-.65297-2.66881.23936-.02586.42885-.17747.49969-.46255.23234-.93506.28906-1.88608-.19838-2.84691q-.34011.94706-1.82782,1.30195c-.00504.29368.02795.5618.10119.80525-.01982.02789-.00583.07616.05481.15143.12644.32051.33657.59075.64613.80615.55369,1.29738-.33901,3.4156-.33901,3.4156l.02246.0004c-.02039.03983-.04034.08085-.05956.12501-.22891.52624-.49202,1.04012-.77444,1.5401-.65794,1.16489-1.25891,1.39028-2.52308.98645-.14476-.04627-.29381-.07913-.47229-.12657-.48652.88432-.77644,1.80963-.63209,2.79894.27934,1.91465.01364,3.79116-.23931,5.6815-.21578,1.61241-.67423,3.12319-1.67769,4.40555-.42595.54432-.99266,1.01703-1.58068,1.38663-.28128.17681-.58597.26219-.89217.27683-.32293-.90086-.0627-1.89202.22783-2.58723.00686.00424.01434.00818.02105.01251.01317-.05877.03226-.12013.05261-.18206.20186-.44493.39507-.73203.39507-.73203.44436.10535-2.51259-1.85663-1.40248-.36204.06732.09064.1238.19002.17131.29614-.01073.17485-.00671.34253.06002.47972.0245.05041.06257.09422.10728.1348.12138.86866-.11489,1.95646-.38328,2.82991-.31057-.10973-.60359-.29291-.8528-.54087-1.19128-1.18521-1.38267-3.39382-.46268-4.79721.66333-1.01181,3.01837-1.40079,3.76008.02901.10733.20687.24622.39734.42516.68255.59811-1.19717.83085-2.3781.92753-3.58237.05835-.72673.0278-1.46341-.00801-2.19339-.01339-.27309-.09838-.57832-.24998-.80151-.30301-.44605-.60366-.39887-.87726.0638-.2588.43763-.50739.88623-.81308,1.29019-.65741.86868-1.15297.99338-2.18825.62415-.12261-.04377-.24967-.07513-.42795-.12805-.28838.50693-.57181,1.00097-.85128,1.49723-.7074,1.2561-.98599,1.3314-2.30107.55188-.22079.33751-.44522.67995-.66896,1.02279-.29504.45208-.59651.88825-.96765,1.18816-.52743-.8956-.2996-1.93224-.0026-2.66232.00163-.00244.00396-.00508.0055-.0075.18162-.28191.32984-.57135.44755-.86936.02362-.03631.03842-.05773.03842-.05773.06297.01502.05556-.01106.00257-.06127Zm8.77721-105.68171c-.26788-.03266-.48234-.0662-.69808-.08353-.43796-.03519-.59778-.33736-.50653-.68714.05406-.20733.32058-.48161.51793-.50519.50042-.05987,1.02479-.0507,1.52318.03092,1.04845.17168,1.65809,1.10443,1.4686,2.15776-.03083.17133-.07359.3405-.14188.65259.94632-.22856,1.81095-.41983,2.66586-.64747,1.89105-.50354,3.80073-.85583,5.76796-.71877,1.56073.10871,3.06216.45151,4.40465,1.29962.29179.18433.53607.44379.81559.67993-.31954.46057-.65989.69678-1.14857.43178-2.72452-1.47748-5.53749-1.22808-8.37833-.44101-.3969.10999-.78473.25262-1.32428.4281.492.26979.84438.4753,1.20773.65917.45447.23001.68275.55661.71525,1.09488.01559.25785.25702.5627.48142.73557.61003.47,1.36063.7895,1.8839,1.33369,1.21868,1.26733,2.55138,2.46284,3.23785,4.15885.08991.22216.35865.38183.56462.54513.45153.35799.81372.7396.73505,1.39147-.01689.14025.14437.34352.27714.45247.37574.30837.78363.57726,1.17098.87204.68343.52013.8808,1.24266.63302,2.01375-.17538.5457-.01854.77976.45791.93191.54645-.66522,1.32518-.92998,2.23428-.50154.73793.34774,1.57641.81194,1.98331,1.46543.91812,1.47451,2.27748,1.74934,3.78698,1.87139.30685.02481.64756.03356.90457.17417.34946.19117.67476.46813.92725.77644.11903.14531.13742.51905.03077.66154-.10377.1386-.43587.18171-.64991.14925-.93928-.14252-1.87202-.32814-2.80748-.49628-.0801-.01441-.16264-.01537-.30268-.02778.23445,1.27963,1.08463,1.97207,2.12253,2.54498-.11828.50218-.47618.70322-.91506.69475-1.26329-.02441-2.12662-.42294-2.65895-1.68827-.57227-1.36023-1.19407-2.70178-1.84939-4.02411-.36118-.72878-1.04225-1.09396-2.01784-1.33499.82502.72286,1.2742,1.37271.23907,2.14334.60577.42285,1.1317.77754,1.64439,1.15039,1.01102.73524,1.17232,1.3252.76859,2.5116-.05507.16192.02672.46371.15475.57812.49468.44211,1.04619.81983,1.5534,1.24884.83371.70518.8563,1.03825.18059,1.88131-.08036.10029-.15424.20577-.25187.33666.45615.41946.90844.80749,1.32892,1.22737,1.23819,1.2363,1.25678,1.90077.06734,3.28647.45082.59642.96035,1.1776,1.36296,1.82529.58072.9342,1.06328,1.92899,1.62994,2.87258.2319.38616.51742.7848.87574,1.04278,1.67096,1.203,3.39895,2.32722,5.06203,3.54065,1.60852,1.17358,2.76219,2.71257,3.50168,4.58071.41539,1.04938.1295,1.91038-.5037,2.71026-.59884.75645-1.4159.70263-2.24959.48014-.14272-.03809-.28176-.08175-.41819-.12934v-1.97566c.14575.03776.29447.06668.4413.08971.04946.00776.23639-.35744.20089-.39335-.23104-.23401-.50594-.42472-.7641-.62767-.27784.11978-.44304.19104-.60825.26225.07729.16876.11094.42159.24083.48905.04212.02186.08698.03904.13093.0578l-.17067,1.8775c-.6494-.31042-1.2138-.75071-1.67402-1.35518-.56205-.73821-.63218-1.53854-.30279-2.38052.29344-.75007.89879-1.12477,1.7094-1.10207.22062.00616.44159.00092.79861.00092-1.62541-1.97757-3.539-3.43403-5.81074-4.65234-.12057.92021-.24851,1.73927-.32997,2.56291-.08058.81442-.13599,1.63278-.16264,2.45072-.02879.88344.34706,1.55547,1.19992,1.86842.6842.25106,1.00495.77433,1.15618,1.42166.053.22693-.04229.48854-.06987.7343-.25187-.03411-.54243.00121-.74912-.11399-1.06097-.59123-1.95872-1.3802-2.57608-2.43666-.78185-1.33789-1.10918-2.77048-.85678-4.3302.06831-.42223.02437-.89494-.09272-1.30919-.51936-1.83747-1.73595-3.16507-3.42314-3.92033-2.03792-.91225-3.78907.1675-4.27691,2.44795-.4069,1.9022.47264,3.87557,2.20534,4.77247.46963.24307,1.04223.34965,1.57709.38893.70203.05153.88227-.2615.69062-1.07482-.11309.08584-.21906.14604-.29938.23062-.42278.44515-.91207.62838-1.49637.36085-.54878-.25125-.91366-1.01412-.8184-1.68864.08965-.63445.53288-.96156,1.09359-1.11501,1.83477-.50211,3.78029,1.43075,3.3124,3.27374-.29753,1.17186-1.22194,1.7294-2.68326,1.586-3.69894-.36303-7.55349-5.17073-4.85479-9.57392.95432-1.55708,2.37473-2.03825,4.45453-1.51553,1.45428.36551,2.68051,1.12873,3.78918,2.10971.15688.13882.32295.26729.56336.46525.02224-.22079.05283-.3239.03943-.42091-.26445-1.91344-1.95162-3.78161-3.84601-4.38248l-.19583-1.5666c.50803.06083,1.01762-.03939,1.36373-.32751.16526-.13753.27417-.52338.20634-.72781-.199-.59972-1.16926-1.26012-2.01727-1.47995l-.274-2.19179c.23188-.02465.48095-.05118.74211-.07896-.99061-1.34359-2.42024-1.91643-3.56452-1.54467.40747.41179.80765.81616,1.30237,1.31614l-.8374,1.95391c-.35902-.03147-.70476-.06068-1.04911-.07966-2.74367-.15121-5.48875-.27802-8.23128-.44739-1.63522-.10099-3.26859-.24571-4.89737-.42109-.23271-.02507-.43477-.33474-.65096-.51267.23606-.16959.47425-.48863.70784-.48531,2.03854.02903,4.07637.11291,6.11421.18611,2.17098.07799,4.34166.16548,6.51279.23887.25605.00864.51428-.04559.8235-.21763-.14276-.10049-.27578-.22016-.42984-.29843-.23746-.12063-.45665-.25871-.66333-.40893l.78189-2.6063c.58261.16915,1.2921.00633,2.10903-.50761-1.06306-.89916-2.20131-1.34952-3.55231-1.30705.2489.8508.63311,1.41641,1.13309,1.69029l-.75273,2.50907c-.5679-.47906-1.01997-1.07113-1.39375-1.74638-.31046-.56081-.68217-1.0874-1.0046-1.64202-.25429-.43743-.61157-.58749-1.10775-.55393-2.4099.16297-4.82028.32093-7.23205.45184-.61611.03345-1.23775-.04682-1.85716-.0585-.42606-.00803-.50024-.28044-.51751-.61929-.02122-.41715.25088-.42538.56457-.45714,3.39002-.34301,6.78105-.67846,10.16625-1.06462.94629-.10794,1.87431-.37602,2.98386-.6066-.99321-.65726-1.87271-.7515-2.82604-.72064-.11639.00376-.23285.00642-.34926.01007v-1.76949c.58213-.11729,1.18424-.23861,1.83428-.3696-.48538-.7063-.85047-1.23239-1.50948-1.02004-.78662.25348-1.5178.66486-1.91764,1.42826.03833.08639.07671.17274.11507.25913.3705-.07465.74371-.14984,1.1213-.22592.12173.41506-.08164,1.33866-.17381,1.71295-3.1603.09426-6.32187.14958-9.48307.21474-.15072.00312-.3438-.01117-.44493-.09981-.16876-.14791-.41209-.38904-.38148-.54258.04124-.20685.30496-.51601.48615-.52516,1.5271-.077,3.05792-.07645,4.58594-.13955.78728-.03251,1.57115-.14705,2.46941-.23566-.50537-1.4106.28147-2.12145,1.22946-2.7709.44801-.30694.85436-.67467,1.32538-1.05149-.97352-.70749-1.93589-1.0287-3.05855-.81798-.23834.04473-.47708.08742-.71549.13176v-1.59875c.53306-.01676,1.07056-.15789,1.61021-.36124-.24547-1.4318-1.96563-2.12348-3.29103-1.35727-.67232.38869-.69689.81944-.04887,1.23826.34207.22108.68719.35687,1.03469.42619v1.7808c-1.78889.33015-3.57903.6536-5.36983.97324-.8065.14395-1.14608-.10227-1.05492-.7946.02443-.1856.25231-.44834.432-.49274,1.17584-.2906,2.36409-.53097,3.64954-.80971-.70973-.81343-1.66553-1.49376-1.26907-2.65922.38755-1.13946,1.57302-1.15134,2.54078-1.51637-.45381-.45912-.97229-.41497-1.4892-.28948-.8563.2079-1.69656.50277-2.56275.64028-.45461.07216-.98487-.02949-1.41379-.21125-.2612-.11067-.45953-.50491-.54586-.81128-.02619-.09301.39353-.39564.64738-.46829.86912-.24875,1.75893-.42426,2.63309-.6569.33127-.08817.64146-.25567,1.10656-.44669-.90402-.4347-1.65581-.5841-2.46878-.25057-.44862.18402-.9069.34985-1.37132.48881-.68651.20544-.92421.02696-.99466-.70335-.01278-.13229.00653-.27065-.02424-.39767-.10553-.4356.02012-.66361.50075-.70828.2758-.02564.54106-.16416.91775-.28651-.79282-.52549-.63922-1.26065-.56147-2.00482Zm21.2762,81.09774c-.02613-.19084.1324-.4706.29394-.59651.0799-.06224.38227.10102.5454.21668.51815.36742.97693.84435,1.53697,1.11958.54005.26542,1.04709.53638.95742,1.1661-.05705.4007-.42377.75735-.65162,1.13375-.07372-.02228-.14747-.0446-.22119-.06688.19493.45795.44486.90207.56471,1.37889.07487.29797.05624.7262-.11463.94278-.12024.15239-.56726.04434-.86817.05773-.21365.00946-.4578-.03499-.635.05259-.75937.37528-1.17694.21543-1.44223-.6235-.3111-.98377-.60579-1.97275-.932-3.03924.77129-.36786,1.07777-.92923.9664-1.74195Zm6.1221-15.71602c-.08828-.17122-.13273-.37937-.14311-.57364-.02859-.5351.32003-.75016.81838-.55045.70584.28286,1.41282.56682,2.13366.80727.91333.30465,1.09614,1.13238.42461,2.14173.2943.40024.64054.78321.8749,1.22548.12402.23399.15457.62523.03752.84389-.08767.16376-.47847.16561-.73445.23894-.27919.07995-.59904.09778-.83034.25018-.69939.46072-1.07804.39905-1.52725-.3118-.43398-.68664-.86382-1.37688-1.3265-2.04401-.27446-.39571-.28361-.75794.07599-1.05562.35328-.29249.3978-.58162.1966-.97196Zm21.25819-2.15c1.38999-8.33995,12.16243-11.11994,12.16243-11.11994,0,0-6.94996,4.86497-13.20492,17.72242-6.25496,12.85743-24.67236,28.49484-24.67236,28.49484,0,0,24.32486-26.75735,25.71485-35.09732Zm-23.82143-34.30865c-.19579-.14142-.29588-.50776-.30325-.77521-.00323-.1178.3341-.24494.51362-.36569.81772.40945,1.48162.05666,2.1809-.15347.79652-.23938,1.31345.15796,1.30789,1.00073-.00317.47794.12501.73111.60836.82885.25106.05076.49413.19383.71391.33663.77085.50095.7595.8021.03057,1.34671-.21664.16183-.38632.41902-.51001.66627-.30505.6099-.60949.72423-1.2072.42573-.76694-.38304-1.5564-.72381-2.30477-1.13935-.20203-.11217-.44702-.4673-.40347-.64503.17089-.69748-.07555-1.12818-.62655-1.52618Zm-11.97089-40.40344s15.63743,12.50993,26.06237,35.44482c8.17183,17.97801,15.06182,22.07659,17.65862,23.00863.69759.19554,1.10628.27373,1.10628.27373,0,0-.39028-.01674-1.10628-.27373-3.4794-.9753-14.18504-4.88562-17.65862-16.75367-4.16998-14.24742-26.06237-41.69978-26.06237-41.69978Zm38.5723,84.78956c5.55997-13.55244,21.1974-23.97738,28.84233-22.93489,0,0-12.85743,5.90747-30.23233,30.57985-13.90513,19.7453-33.14933,31.25412-39.56947,35.06396-1.19231.9128-1.95129,1.42333-2.13032,1.42333-.27758,0,.52828-.47269,2.13032-1.42333,8.06516-6.17451,36.1156-30.90199,40.95946-42.70891Zm22.07334-26.11832c-2.30833-.57649-20.1707.15323-26.24331-19.75143-6.25496-20.5024-38.2248-48.64974-38.2248-48.64974,0,0,27.45236,19.80739,38.2248,41.69978,10.12464,20.57586,24.54539,26.11014,26.24331,26.7014.06932.01731.126.0357.16654.05595,0,0-.05789-.0181-.16654-.05595Zm-60.15897-43.8647c.01548.17819-.35253.51397-.5969.56939-1.18374.2685-2.39556.43662-3.5829.0755-.26419-.08034-.42575-.49829-.63454-.76078.04614-.11659.09226-.2332.13843-.34979,1.23333-.13385,2.46609-.27375,3.70081-.3932.13935-.01348.32839.04869.42733.14481.21983.21351.52567.45962.54777.71406Zm3.55895,23.48066l1.05428-1.5814c.16093-.01713.35775-.03809.5832-.06207l.29933,2.09535c-.10115-.01258-.19959-.01938-.29146-.01491.62917.77266.43481,1.43906-.263,2.00368.24514.24688.57003.42131.91581.52294v1.49882c-.8912-.17784-1.67945-.56589-2.2153-1.33211-1.09191-1.56139-.83342-2.16709.28842-3.09869-.12701-.01034-.2493-.021-.3713-.0316Zm43.90912,49.97734c23.62986-34.40232,38.2248-24.67238,38.2248-24.67238,0,0-20.8499,7.64496-37.52981,29.53735-16.6799,21.89237-48.99724,44.47977-69.15213,50.03974,0,0,44.82727-20.5024,68.45713-54.90471Zm-6.94996-55.25221c-6.94996-14.94244-45.52226-50.73473-45.52226-50.73473,0,0,20.15491,7.99245,41.35229,40.65727,21.19738,32.66483,44.13227,35.44482,44.13227,35.44482-14.59494,3.82248-33.01233-10.42494-39.96229-25.36735Zm-45.31235-22.91079c-.036.2079-.27624.49545-.47574.54093-1.07082.24402-2.1564.42346-3.43632.66247-.20421-.19251-.61558-.40904-.7323-.73203-.16044-.4439.30534-.54007.64921-.62774.78704-.2006,1.56618-.45256,2.36514-.57777.40585-.06358.86362.05375,1.26568.1867.17397.05749.39285.38297.36432.54744Zm-4.03883-2.32107c-1.28255.74782-2.46097.74019-3.40286-.02199-.86571-.70052-1.04665-1.7008-.4808-2.66335.07691-.1308.15838-.25893.36564-.59688-.82526,0-1.48252-.01636-2.1385.00556-.46345.01548-.68675-.16183-.7328-.63469-.04377-.4492.18006-.55023.56178-.62611,2.08299-.41412,4.09625-.32623,5.94178.84064,1.36237.8614,1.2833,2.88195-.11423,3.69683Zm-25.84079,119.60481c-.05613-.83166.08094-1.01177,1.08182-1.00942.99554.00231,1.073.17584.97352,1.13984-.0602.58314.10651,1.20439.24804,1.78994.17872.73944-.07685,1.32241-.75528,1.52409-.78216.23249-1.57142-.083-1.74255-.7487-.06578-.25598.02736-.55349.05111-.8318.05307-.62185.18486-1.24866.14333-1.86395Zm4.34808-101.42743c-.05072,3.36697-.29766,6.73075-.44244,10.09655-.15906,3.69793-.39448,7.39586-.42274,11.09511-.02556,3.3439.19579,6.68927.28424,10.03462.05485,2.07465-.38207,3.97054-1.55259,5.78325-1.99101,3.08339-2.98668,6.57664-3.5557,10.18583-.17283,1.09609-.39916,1.45193-1.50119,1.44663-1.82377-.00875-2.87321.93565-3.52697,2.50707-.3226.77545-.69768,1.53258-.9625,2.32685-.1125.33745-.10887.80516.04955,1.10339.08122.15283.6361.13786.94836.0691,1.16328-.2562,2.31898-.55037,3.46869-.86272.53985-.14667.60504.00119.50783.51507-.32964,1.7427-1.2392,3.15407-2.41551,4.42504-.99351,1.07346-1.65897,2.34247-2.19271,3.68607-.12039.30314-.22884.64698-.2092.96378.10858,1.75003-.22097,3.42343-.70276,5.09619-.41986,1.45771-.76784,2.94322-1.02492,4.43755-.11824.68728-.036,1.44566.11716,2.13588.39142,1.76379.88306,3.50509,1.31592,5.26.23859.96736.08118,1.9276-.3853,2.76993-.906,1.63603-1.33292,3.37429-1.59374,5.21636-.29766,2.10217-.79608,4.17182-.67901,6.31982.1481,2.71697.13185,5.45031.4283,8.15002.3954,3.60067.98645,7.19321,2.64145,10.48105.50174.99677,1.25071,1.86721,1.855,2.81555.14492.22741.16416.53493.24118.8056-.3021.04469-.65587.21356-.8976.11305-1.16337-.48384-2.31687-1.00101-3.43506-1.58116-1.30635-.6778-2.03077-1.76586-2.19337-3.2654-.34734-3.20303-1.48898-6.21799-2.26406-9.32058-.67881-2.71713-1.19761-5.47426-1.78011-8.21525-.04091-.19253-.03741-.39767-.03222-.59638.09787-3.74568.20593-7.49109.29487-11.23696.0227-.95566.27452-1.83554.75581-2.64873.47557-.80353.63889-1.60636.29293-2.52286-.57614-1.52644-.19607-3.03302.12866-4.56104.60559-2.8499,1.15061-5.71458,1.62405-8.58905.09431-.57269-.11338-1.29296-.41335-1.8111-.52725-.91071-.99197-.97467-1.90691-.45355-.36507.2079-.56636.10786-.76104-.19071-.49576-.76034-.99512-1.51835-1.48588-2.28192-.35575-.55351-.3027-1.05481.12345-1.57854.25585-.31446.42432-.71774.56451-1.10548.55492-1.53484,1.06312-3.08673,1.62825-4.61765.38374-1.03957.3559-1.20434-.58263-1.76643-1.01944-.61058-1.40211-1.58404-1.01304-3.01943.50787-1.87367,1.04584-3.74618,1.71697-5.56529.2886-.78229.89993-1.46519,1.44084-2.13137,2.40064-2.95668,4.83297-5.88763,7.24448-8.83558.64509-.78858,1.25774-1.60375,1.88406-2.40768.54913-.70487.7912-1.5061.84101-2.39807.19148-3.42897.40426-6.85677.61932-10.28438.18314-2.9189.39355-5.83616.56845-8.75552.32042-5.34879.69178-10.69047,1.93024-15.92737.5534-2.34009,1.06596-4.69129,1.68961-7.01258.27892-1.03807.76988-2.02173,1.19893-3.01525.12411-.28737.36736-.52329.556-.78279.08325.0126.16649.0252.24976.03783.15758.81504.38135,1.62394.45775,2.44652.12488,1.34425.20074,2.69694.21455,4.04692.04419,4.32332.11553,8.64797.05041,12.97021Zm-17.86588,116.9357c-.59974,1.01309-1.09858,2.11274-2.22579,2.97493-1.5121-6.59716-2.99037-13.04675-4.51127-19.68229-.17093.64885-.29639,1.14344-.4316,1.63537-.67234,2.44621-1.43303,4.87232-1.99204,7.34408-.3936,1.74024-.45663,3.55257-.77529,5.31316-.25097,1.38643-.63856,2.75119-1.03117,4.10655-.08894.30699-.42261.70832-.69321.75088-.26977.04247-.69436-.24169-.89096-.50308-.97851-1.30101-1.86712-2.69975-1.90737-4.36805-.02716-1.1268.24697-2.26683.43958-3.39184.55892-3.26457,1.158-6.52225,1.71572-9.78702.44986-2.63331.96937-5.26114,1.26399-7.91297.35016-3.15181.33562-6.32233-.01359-9.48872-.17221-1.56156-.23166-3.13832-.27982-4.71014-.0808-2.63696-.05103-5.27849-.18285-7.91233-.1061-2.11943-.34671-4.23466-.59833-6.34329-.12242-1.026.02362-1.79934.91944-2.4898,1.63159-1.25755,2.34335-3.09168,2.5988-5.06791.22673-1.75385.35381-3.52781.39087-5.29572.01658-.79155-.12981-1.67461-.48729-2.36954-1.11677-2.17116-1.67545-4.50566-2.26536-6.83938-.14056-.55595-.3093-1.10511-.43956-1.66331-.18523-.79379-.54036-1.46308-1.13469-2.05006-1.36307-1.3462-1.9329-3.1625-2.65145-4.86277-.55364-1.31011-.90754-2.71213-1.26342-4.09562-.22482-.874.10253-1.44034.9426-1.81763.76364-.34299,1.58661-.55815,2.33739-.92412.62264-.30351,1.22825-.6871,1.74952-1.14076.52274-.45496.71901-1.11441.57876-1.81858-.32342-1.624.01425-3.2199.19099-4.82099.28161-2.55066.58987-5.09837.88161-7.64793.38731-3.38454.71701-6.77672,1.16918-10.15248.42841-3.19861.97607-6.38141,1.49022-9.56809.06862-.42538.24846-.83279.37682-1.24851.09061-.00229.18125-.0046.27184-.00691.13049.35755.35361.70916.37693,1.07353.20362,3.18434.35909,6.37171.55351,9.55668.19836,3.25014.38071,6.50222.65114,9.7467.25913,3.10824.59048,6.21153.95316,9.3096.18464,1.57753.51267,3.13806.7661,4.70785.10975.67964.5018,1.11459,1.12237,1.36129.45082.1792.90543.34974,1.36279.51161.93154.32964,1.32962.84059,1.39272,1.80088.03774.57436.0596,1.15072.12448,1.72212.19772,1.74077-.2612,3.31955-1.13643,4.80458-.07623.12932-.1602.28596-.15468.42656.04522,1.15376-.57183,2.04705-1.23487,2.86233-.82482,1.01421-1.17753,2.16812-1.30842,3.41267-.29526,2.80728-.86309,5.52152-2.08838,8.10616-.46692.98491-.62328,2.17059-.68961,3.27862-.08701,1.45402-.00112,2.9267.12697,4.38111.04867.55263.31455,1.16385.66814,1.59537.68538.83639,1.45692,1.61833,2.27919,2.32177.78537.67184,1.03948,1.46607.8738,2.42448-.59526,3.44373-.64883,6.91794-.66038,10.39949-.01522,4.58957-.07366,9.17905-.1295,13.76838-.02641,2.16962-.21785,4.3459-.09838,6.50609.10568,1.9099.59948,3.79481.81493,5.70286.44172,3.91197,1.68042,7.62362,2.79485,11.40601-.20194.12204-.37803.22842-.57441.34712.3131,1.47119.48555,2.94626-.32828,4.32098Zm-27.4909-166.38799c19.11239-11.81493,16.6799,15.98491,16.6799,15.98491-1.04249-22.93487-16.6799-15.98491-16.6799-15.98491Zm43.07011,0s-15.63741-6.94996-16.6799,15.98491c0,0-2.43251-27.79984,16.6799-15.98491Zm-42.94699,38.54483c.48335,3.00944,1.09429,6.00173,1.47385,9.02353.38031,3.02783.56589,6.08119.79504,9.12653.18279,2.42952.30853,4.86345.44911,7.29605.1688,2.91986.33333,5.83999.48575,8.76075.06468,1.23956-.0024,2.49493.1748,3.71638.10909.75196.41266,1.58268.89377,2.15554,2.32208,2.76485,4.75098,5.43966,7.10664,8.17683,1.08287,1.25827,2.08519,2.58596,3.12231,3.88355.08283.10363.17454.20876.22449.32887,1.00511,2.417,1.87442,4.87713,1.91232,7.52914.00583.40882-.36432.85709-.64349,1.22407-.19163.25189-.53407.38522-.79599.58844-.41561.32245-.62022.82366-.37138,1.23859,1.11729,1.86323,1.14028,3.96566,1.42129,6.01304.1105.80485.23274,1.6149.24175,2.42378.00405.36349-.18853.78002-.41207,1.08411-.40637.55274-.81227.54746-1.20938.0049-.28715-.39232-.53493-.43195-.92602-.16458-1.10458.75517-1.84561,1.79505-1.45771,3.37913.80822,3.30053,1.56662,6.6159,2.22166,9.94948.1659.84422-.16649,1.77842-.20947,2.67413-.03464.72207-.05476,1.46011.05322,2.17061.2482,1.63302.66984,3.24339.85251,4.88171.23529,2.11017.41396,4.23818.425,6.35948.02375,4.56494-.75161,9.01795-2.13287,13.37201-.58699,1.85034-1.09671,3.7265-1.59121,5.60415-.19579.74334-.22466,1.52899-.38242,2.28429-.3349,1.60335-1.20393,2.83431-2.66056,3.61827-.83723.45063-1.68336.88476-2.52726,1.32289-.13687.07106-.2838.17722-.4247.17509-.33441-.00504-.66799-.06534-1.00192-.1033.06688-.30787.03803-.69326.21512-.91179,2.25777-2.78603,3.2195-6.09072,3.95473-9.51392,1.15765-5.39011,1.3466-10.84222,1.11072-16.31721-.08674-2.01368-.54894-3.99741-1.40002-5.83487-1.16537-2.51593-1.10183-5.04802-.35555-7.63048.25136-.86976.53227-1.73113.77512-2.6032.30934-1.11087.348-2.2374-.0322-3.33323-.85016-2.45026-1.47981-4.9463-1.80833-7.52393-.16623-1.30433-1.08175-2.26364-1.80626-3.27735-.65198-.9122-1.47841-1.69898-2.21752-2.55006-.24576-.28297-.49523-.57328-.68002-.89626-.35568-.62169-.13874-1.03616.58941-1.08056,1.18998-.07253,2.38322-.09182,3.57501-.13541.11039-.00402.2224-.01124.33006-.034,1.32326-.28031,1.45303-.52107.97117-1.79245-.27393-.7228-.54342-1.44735-.82357-2.16775-.59262-1.52398-1.74028-2.2833-3.34177-2.42125-.30707-.02646-.61479-.07313-.91544-.14071-.57797-.12987-.91462-.46815-.97955-1.09143-.12794-1.22863-.1236-2.50429-.47506-3.66964-.8107-2.68796-2.02418-5.19083-4.16197-7.12637-.59767-.54113-.78884-1.25253-.89619-2.01417-.46629-3.30823-.40571-6.62448-.22966-9.94946.08188-1.54634.01401-3.10058.01401-4.65124.05806-.00026.11613-.00057.17423-.00084-.15116-4.23052-.32311-8.46039-.44865-12.69166-.19262-6.49203-.3815-12.98444-.51113-19.4779-.04155-2.07982.1156-4.16333.16827-6.24551.01359-.53768.24534-.91086.76005-1.02543.55608-.12376.85236.25095,1.06886.69777,1.12572,2.32296,1.8598,4.76486,2.26903,7.31285Zm-4.24275,48.41725c.02298-.14384.07432-.28314.16662-.62519.59563.53425,1.2087.90185,1.56966,1.43893,1.71809,2.55622,3.00032,5.28467,3.20362,8.43822.09943,1.5423.4161,3.06975.54155,4.6115.09492,1.16612.09565,2.34671.04124,3.51635-.05723,1.23074.24105,2.27004,1.20606,3.08123,2.74596,2.30835,4.31931,5.25835,4.85606,8.79568.18532,1.22113.43629,2.4364.73278,3.63569.5093,2.06003-.02534,3.90779-.91632,5.75241-.36355.75269-.46136,1.64463-.6165,2.48494-.40402,2.18838.05452,4.29083.88339,6.28824.82003,1.9761,1.09728,4.04635,1.35977,6.12549.16548,1.31088.46749,2.68862.23669,3.95008-.78623,4.29686-1.59376,8.61481-3.75285,12.50654-.63735,1.14879-1.50284,2.10058-2.66148,2.76732-.45936.26436-.88471.58778-1.35848.90646-.95467-.77496-.98729-.91555-.43576-1.96444.7385-1.40451,1.61149-2.74374,1.75304-4.39864.13942-1.62988.25543-3.27392.57548-4.87291.35524-1.77481.43081-3.55319.49257-5.34472.06919-2.00588-.39527-3.90106-1.11802-5.75043-.82793-2.11842-1.65497-4.23719-2.47196-6.35985-.77191-2.00559-.76845-4.02719-.28457-6.11682.59224-2.55783.23335-5.09456-.43664-7.60895-.68736-2.57964-1.36545-5.16558-1.91051-7.77738-.20643-.98916-.19066-2.08969.00411-3.08457.45689-2.33382.0397-4.4906-1.00361-6.55709-.84438-1.6725-1.45155-3.42622-1.71121-5.26556-.12886-.91269.02743-1.8815.15486-2.81121.26401-1.9254.59398-3.84177.90039-5.7613Zm-4.0698,67.13211c-1.49077.70087-3.06225.82544-4.66182.39927-.39593-.1055-.80991-.26687-.69781-.7939.11063-.52004.56457-.64894.98782-.53908,1.88091.48808,3.43731-.22592,4.8975-1.27538,1.16746-.8391,2.29916-1.72799,3.52847-2.65647-.28229-.42894-.51966-.84563-.81939-1.21116-.09092-.11087-.35801-.12347-.53803-.10779-1.4682.12796-1.84662-.09248-2.52418-1.44451-.01212-.02419-.03398-.04652-.05494-.06893-.08413-.63711-.12338-1.67382.35955-2.27965.26863-.09349.53262-.21173.78994-.32953.21173-.09688.37325-.3034.71794-.59695.27083.68952.59363,1.28486.72576,1.9199.10491.50403.27941.77512.77958.88467.24912.05459.52002.17551.70063.34979.96264.92905,2.06902,1.22196,3.35802.86463.25121-.06963.51755-.08463.97805-.15604-.11694.38436-.11663.74886-.29872.92648-2.46666,2.40667-5.07747,4.63329-8.22838,6.11467Zm7.67438.69654c-.00622.44445-.28323.50436-.63685.31873-.13383-.07025-.25398-.16654-.26797-.17586-.71886.31268-1.28218.59631-1.87266.80208-.45522.15864-.66959-.05534-.71413-.55949-.04517-.51159-.14652-1.04135-.34754-1.50988-.22834-.53235-.12129-.92672.31383-1.20487.85346-.54559,1.72814-1.06092,2.6167-1.54736.44722-.24481.86648-.02041.88854.49978.04768,1.124.03585,2.25133.02008,3.37687Zm-20.17903-8.92925c-.17711-.79197-.03202-1.08246.75356-1.34033.89962-.29533,1.79971-.58932,2.6979-.88885.37431-.12481.63234.02382.71618.37356.14553.60704.50957.75845,1.07907.65534.39619-.0717.83622-.11969,1.02708.35792.20441.51142-.22961.71686-.51949,1.02208-.41737.43948-.84864.91249-1.09708,1.45254-.24776.53851-.588.80166-1.12688.88113-.55479.08182-.78315-.29856-.9845-.71538-.03598-.07451-.10834-.13148-.17518-.20975-.44431.16994-.86443.41896-1.30811.47242-.35403.04265-.77536-.0894-1.08551-.27778-.10627-.06453.04975-.53451.05738-.82003.00856-.32122.03455-.6544-.03442-.96288Zm5.77388-2.28918c-.669-.16031-.85265-.66621-.76911-1.27565.05754-.41972-.10141-.66161-.48922-.68917-.79702-.05661-1.53475-.21864-2.22704-.46147-.1064-.70302-.22761-2.23701.6255-2.76619.13838-.08586.21969-.15044.2573-.19792.63722-.22073,1.18877-.62855,1.51775-1.50909-.46677-.07548-.89492-.2831-1.20252-.16816-.87466.32678-1.70012.78513-2.55686,1.19742.19834.4867.51788.66957.87662.707.09121.21765.61723,1.60865-.46468,2.34141-.97337-.46897-1.85885-1.09416-2.69947-1.79894.04168-.79599.22191-2.19982.94612-2.80893.76346.04306,1.47585-.33872,1.95039-1.1332-.94436-1.02697-2.59143-.89663-3.6967.29251.27844.26522.57005.4636.86435.60366.06675.4565.16064,1.76085-.787,2.41353-.35438-.32223-.70349-.65385-1.04951-.99088-.73764-.71855-1.52668-1.32494-2.54173-1.6229-.85605-.25128-.87143-.50977-.14511-1.39516-.14927-.08388-.29654-.16814-.44431-.25238.06928-.65404.28207-1.77934.94086-2.31313.83045.02877,1.64197-.43442,2.08336-1.33895-.38108-.1346-.74519-.40514-1.02595-.33617-.89804.22044-1.76518.56671-2.69724.88236.27562.29885.58782.50858.91297.63885.01825.57575-.11496,1.58602-1.2096,1.91229-.00246-.0013-.00486-.00273-.00732-.00405-.76307-.40587-1.43741-.89516-2.0525-1.44014.05175-.32612.37184-2.13293,1.19319-2.89037.80974.00708,1.60531-.24101,2.3916-.95808-.43382-.26762-.8104-.69744-1.1513-.67083-.81143.06341-1.60599.34259-2.40737.5346-.02881.10715-.05765.21433-.08643.32148.22741.18558.44777.46552.67676.63031-.08217.68015-.40107,1.85298-1.6127,2.04619-.81526-.91528-1.50383-1.94949-2.11325-3.05767-.08102-.14733-.14769-.34803-.11723-.50356.11267-.57535-.15525-.80347-.53088-.87411.06847-.99085.28073-2.48039.92248-3.35734.9325.23258,1.97319.21028,2.54643-.22304-.29372-.45513-.56281-.93356-.89668-1.36144-.15048-.19286-.41495-.36206-.65385-.40893-.83476-.16372-1.62246.05439-2.33378.48652-.3665.22264-.41759.6002-.05859.87853.16788.13016.37026.24683.59233.34899.06497.89001-.01243,2.69018-1.56957,3.34858v-1.69447c.18437.06204.38792.01696.66805-.10319-.52624-.31745-1.00649-.60715-1.48672-.89685.18354.33193.33226.57201.47117.73665v2.03073c-.65697-.18692-1.23148-.50609-1.74613-.92105.04762-.28757.75249-4.39073,2.34596-5.69318.04669-.00405.09187-.0049.13992-.0117.73927-.10471,1.48072-.19403,2.2643-.29573-.09765-.87015-.59433-1.18836-1.31378-1.3402-1.07685-.22726-2.0381-.13346-2.81159.71736.17065.29751.36987.51797.59635.67212-.10964,1.11182-.59816,3.77715-2.75174,4.26558-.04471-.06292-.0898-.12521-.13379-.18934-.22807-.3327-.46611-.4642-.86276-.45989-.81862.00895-1.64481.02367-2.45371-.07748-.38179-.04775-.80769-.28636-1.07029-.5708-.20812-.22539-.32636-.68286-.25519-.98291.11355-.47891.60238-.44319,1.0042-.39045.78537.10304,1.56785.22821,2.34574.34336.2672-1.1959-.464-2.20811-1.55215-2.2464-.57322-.02017-1.06904-.44491-1.06216-.96745.00794-.60174.41365-.8164.95346-.89879.76949-.11742,1.43833.13288,2.08125.507.18848.10968.36987.23161.62328.39127.18941-.40013.36283-.76652.57071-1.20569-.03257-.01979-.06398-.03864-.0964-.05828.51819-.54559,1.3362-1.28381,1.94876-1.25506.06913.00326.12204.00172.16662-.00222.4398.09495.88229.19049,1.36743.2952-.69346-1.02373-1.32806-1.14369-2.7056-.58408.16407.03543.31963.06902.47651.10289-.35603.46694-1.10986,1.25086-1.98855.99767-.09006-.05476-.17978-.10979-.26918-.1648.07407-.78801.29744-2.50907.88981-3.55275.39553.24074.82872.37737,1.27378.41075.05441-.68209.10555-1.32302.16616-2.08305-.61212-.39472-1.48687-.44137-2.1431-.06792-.39179.22297-.46939.51929-.21466.87761.13038.1834.27342.3435.42448.48619-.01883.87486-.22614,2.55059-1.47935,3.14481-.3992-.4439-.23515-.8535.39124-1.73709-.44513-.41407-.89883-.82913-1.34469-1.25249-.71611-.68006-.94071-1.45654-.53576-2.40607.08998-.21105.04616-.55967-.07317-.76535-.48843-.84169-.98769-1.68427-1.56988-2.46136-.28726-.38344-.72403-.70938-1.16179-.91586-1.61549-.76201-3.31049-1.3691-4.87782-2.21552-1.39701-.75442-2.49609-1.90948-3.20079-3.37465-.83402-1.7341-.1068-3.50434,1.59563-3.9132,1.24052-.29792,2.92778.39608,3.59687,1.47946.78594,1.27259.00449,3.15491-1.45727,3.5158-.08195.02021-.15653.07023-.36549.16711,1.39239,1.49499,3.06619,2.26391,4.86999,2.77015.06983-.0653.12523-.09332.12451-.1198-.06266-2.27869-.11168-4.55799-.20727-6.83533-.02888-.68785-.40778-1.19251-1.08433-1.45538-.62919-.24446-.78007-.8179-.80751-1.40387-.00653-.13951.30012-.43378.42113-.41315.37844.06455.78572.1761,1.0953.39296,1.92641,1.34926,2.61483,3.32039,2.70331,5.57055.01566.39846.03574.80257-.01031,1.19656-.22224,1.90042,1.46719,4.2122,3.40676,4.57446.83646.15618,1.72649.38845,2.53553.2515,1.59504-.27001,2.40055-1.8665,2.04734-3.61363-.22981-1.13676-.66704-2.06044-1.93851-2.31772-.81682-.16528-1.47383.05336-2.01635.77642.26509.0585.48674.12809.71332.15323.52446.05815.89848.28851.92899.8504.03103.57148-.16691,1.04454-.73634,1.28812-.65787.28139-1.27519.1567-1.80635-.27217-.67509-.54515-.9322-1.29282-.77032-2.13916.27448-1.43528,1.39353-2.31264,2.89714-2.32287,2.5911-.01759,4.84287,2.14424,5.02337,4.72472.19499,2.78799-1.05912,3.98059-3.98255,4.52596-1.75856.32806-3.37124-.18334-4.86629-1.1127-.25992-.16156-.52435-.31592-.8133-.48958.02734,1.43409,1.34741,2.76257,2.70721,2.69823,1.35012-.06385,2.52481.33736,3.59733,1.12046,1.09435.79905,1.24391,1.47284.58562,2.67393-.06101.11135-.11674.22565-.24307.47093.32564,0,.55312.00717.78005-.0011,3.18968-.11626,6.37954-.22867,9.56886-.35436,2.72372-.10735,5.44677-.23315,8.1704-.34345.34402-.01394.80485-.0865.8232.41535.01704.46532-.28123.76293-.79469.79344-2.16718.12866-4.33449.2564-6.50048.40338-3.20415.21743-6.40734.44946-9.6105.68121-.19172.01388-.37965.07995-.59803.12805.77123.69559,1.53128,1.33287,2.23525,2.02704,1.15569,1.1396,1.52156,2.72423,2.24451,4.10861.19099.36575.40189.78405.72319,1.00189.35333.23953.86727.43123,1.27156.37213,1.37009-.20025,2.7228-.51971,4.0818-.79533,2.7479-.55732,5.50292-1.0829,8.23832-1.69592.71903-.16115,1.03275.03231,1.22588.82953-.40088.16449-.8184.39698-1.26606.51021-5.30803,1.3426-10.62068,2.66694-15.93151,3.99851-.20641.05175-.40677.12767-.68279.21554.5635.43567,1.12068.54863,1.73074.40631,3.95422-.92254,7.90675-1.85241,11.86158-2.77231,1.46079-.33978,2.93073-.641,4.38804-.99464.85009-.20628.74329.51775,1.08837,1.05195-.921.26843-1.76945.53499-2.62823.76256-2.90086.76859-5.80577,1.52195-8.70782,2.28605-.2312.06086-.45245.15928-.7471.26491.19284.56466.35335,1.1085.57172,1.62801.06323.15046.27883.26203.44862.33668.26095.11472.54949.16526.81451.27232,1.45665.5885,1.77341,2.04175.6266,3.13129-.53055.50405-1.20483.8568-1.80703,1.40422.3998-.09677.82771-.1322,1.19498-.30015,2.81403-1.28686,5.61566-2.6008,8.42249-3.90337.80202-.37217,1.60852-.73463,2.40185-1.09649.73857.79828.67635,1.23243-.24635,1.69957-1.95162.98808-3.91036,1.96207-5.75457,2.88588.48724.65798.94297,1.29841,1.43092,1.91331.10984.13836.32401.21101.5042.27298.39459.13572.81304.21002,1.19533.3718,1.24844.52831,1.59394,1.90055.73476,2.95301-.26188.3208-.60104.58688-.93473.83828-.33294.25088-.70338.45195-1.05738.67485-.00917.06902-.01834.13803-.02754.20705.43888.07267.88183.21947,1.31539.1957.38044-.02085.75906-.2123,1.12295-.36536.56981-.23973.91891-.4925.60495-1.28271-.18785-.47275-.02571-1.20263.21369-1.70518.74567-1.56543,2.12049-2.49541,3.61794-3.30565.29586.41284.56532.78889.87754,1.22462-.39489.35247-.79914.68429-1.16812,1.05153-.31068.30919-.64575.62319-.85496.9991-.47255.84902-.267,1.22469.65609,1.5072.45887.14045,1.12477.11247,1.1785.77525.05567.6869-.62281.70265-1.0578.9042-.78152.3621-1.5849.67793-2.35995,1.05283-.36848.17824-.69277.44785-1.11732.72928,1.18767.54984,2.15594.36762,3.15504-.23984.8195-.49824,1.72599-.85953,2.61301-1.23663.24582-.10451.55967-.04898.93009-.0724.04924.79988.11318,1.54364.128,2.28836.00369.18567-.11162.48918-.24268.53444-.18653.06438-.47471-.00304-.6529-.11764-.23168-.14905-.39806-.39962-.71167-.73322-.35586.53735-.71974.99807-.98184,1.51082-.1803.35269-.03963.65554.30098.68345.1337.51982.19251,1.37396-.60949,1.90407-.23432-.00444-.46925-.00407-.70307-.01729-1.33815-.07575-1.9168-.67395-1.95217-2.00282-.00295-.11047-.01256-.22082-.02424-.41889-.70063,0-1.4027.01663-2.10344-.00675-.37189-.01238-.74859-.0644-1.11052-.15116Zm-28.34836-76.50514c.08219.19935.05892.5691-.07388.69603-.14505.1386-.50282.17362-.71554.10082-.74428-.25469-1.47962-.54612-2.19273-.87858-.8206-.3826-.83795-1.12917-.04201-1.85208-.27153-.49545-.55518-.94438-.77039-1.42399-.24158-.53836-.05696-.80925.50851-.96464.47717-.13108.95003-.29449,1.40248-.49419.42375-.18706.75253-.0922.97379.26942.48348.79021.95624,1.58954,1.37378,2.41529.08157.16134-.03739.52307-.18378.68178-.40906.44348-.51496.88111-.28024,1.45014Zm-14.94354-1.87295c-3.47359,11.86813-14.17935,15.77841-17.65868,16.75369-.71596.25697-1.10621.27371-1.10621.27371,0,0,.40868-.07819,1.10621-.27371,2.59678-.93204,9.48681-5.03052,17.65868-23.00866,10.42494-22.93489,26.06237-35.44482,26.06237-35.44482,0,0-21.8924,27.45236-26.06237,41.69978Zm15.17194,47.35837c.23005.09389.47616.4473.49274.69753.02681.40501-.31464.52822-.71516.60698-.57049.11215-1.16405.27241-1.65792.56416-.54716.32317-1.07951.44726-1.51824.02899-.27404-.26131-.31741-.76456-.46431-1.15926.0501-.05375.10022-.10748.15035-.16123-.40512-.09233-.83892-.12347-1.20663-.29568-.31396-.14705-.67105-.41247-.78007-.70953-.06811-.1856.2824-.53097.45617-.79744.17289-.26509.42036-.49831.52864-.78561.29007-.76984.78959-.96299,1.56596-.63278.64604.27477,1.31499.54172,2.00025.66449.61503.11023.75535.42016.61325.91315-.16106.5587-.00506.84585.53497,1.06625Zm.81297,20.75126s-18.41739-15.63741-24.67236-28.49484c-6.25496-12.85745-13.20492-17.72242-13.20492-17.72242,0,0,10.77244,2.77998,12.16243,11.11994,1.38999,8.33997,25.71485,35.09732,25.71485,35.09732Zm-24.32486-70.88962c-6.07262,19.90466-23.93498,19.17494-26.24331,19.75143-.10865.03785-.16656.05595-.16656.05595.04053-.02026.09723-.03864.16656-.05595,1.69792-.59125,16.11867-6.12553,26.24331-26.7014,10.77244-21.8924,38.2248-41.69978,38.2248-41.69978,0,0-31.96984,28.14734-38.2248,48.64974Zm-4.16998,45.86976c4.84386,11.80693,32.89429,36.5344,40.95946,42.70891,1.60203.95065,2.4079,1.42333,2.13032,1.42333-.17903,0-.938-.51054-2.13032-1.42333-6.42014-3.80983-25.66433-15.31866-39.56947-35.06396-17.3749-24.67238-30.23235-30.57985-30.23235-30.57985,7.64498-1.04249,23.28239,9.38245,28.84236,22.93489Zm23.95181-25.21256c.14698.2502.1789.76483.01942.94271-.15844.17667-.6235.11555-.95014.09528-.45872-.02853-.91845-.18837-1.36925-.1595-.57603.03688-1.1357.02217-1.3298-.57562-.12725-.39199.00567-.86846.02206-1.30708.07403-.00959.14806-.01918.22209-.02879-.3177-.27028-.6807-.50403-.9378-.82313-.18435-.2288-.35053-.59904-.29397-.8552.04561-.20643.43637-.33703.67459-.5004.22306-.15294.49349-.26531.66179-.46428.55549-.65671,1.1619-.65024,1.71836-.00693.4431.5123.92894.996,1.44539,1.43394.44068.37367.41665.76461.14813,1.16652-.25213.37739-.27347.66951-.03086,1.08248Zm25.77298-46.22942c.17553-.22603.5911-.50656.76837-.43622.29792.11819.67949.48544.69682.7681.06138,1.00093-.01656,2.01036-.04172,3.01659-.09119.03539-.18237.07075-.27353.10614-.27857-.23658-.55712-.47315-.89043-.75623-.58982,1.27384-.93675,2.54745-.43059,3.93909.63975,1.75902.94458,3.54655.32374,5.47411-.8965-.4565-.67558-1.49978-1.15567-2.1906-.6485.34567-1.07856.56987-1.40451.6981v-2.32263c.171-.13339.33226-.37424.38009-.56669.22715-.9135.03543-1.78983-.43248-2.64675-1.03882.43393-1.43314,1.70738-.86881,2.81964.09759.19229.36008.40943.5737.47361v2.35043c-.51214.10451-.77455-.14595-1.63463-.5988.13548.35968.24549.63176.34114.90884,1.08762,3.14985,2.22097,6.28534,3.22386,9.46197.2376.75258.03521,1.64404.03521,2.47163-.08914.03963-.1783.07924-.26742.1189-.22488-.30237-.53198-.57333-.6615-.91214-.95362-2.4942-1.87139-5.00206-2.80191-7.5051-.06068-.16321-.13352-.32194-.22713-.54599-.24996.10786-.48038.16145-.69862.17973l-.50691-2.90321-.02054.01174c-.16035-.63148-.46255-1.18185-1.02763-1.62466-.71739,1.08171-.64742,1.42644.71475,2.26804l.21215,2.19225c-.99969-.26238-1.76006-1.27703-2.87231-1.63359.05498.37114.0364.66471.14672.89707.18829.39668.45894.754.6924,1.12948.69944,1.12477.69876,2.30037.22409,3.49563-.27897.70239-.59455.98995-1.16045,1.00506l-.80078-2.13544c.16904-.0949.32909-.18741.48172-.28499.09787-.06255.20161-.29513.16007-.36632-.21292-.36476-.40462-.79984-.73124-1.02703-.51936-.36127-.81702-.19876-.87389.44029-.04667.52448.03919,1.06075.07322,1.72792.2251-.12495.41966-.23038.60247-.33023l.73265,1.95371c-.07676-.00972-.15239-.01858-.2372-.0346-.1059-.02004-.21593-.01819-.35937-.02919.10495.5768.26885,1.12365.28018,1.67362.00673.3261-.22724.65715-.35297.98595-.2738-.18103-.61888-.30723-.80815-.55331-.58934-.76621-1.11965-1.57786-1.67285-2.37189-.05408.02978-.10814.05956-.16222.08934.12761.28011.24239.56693.38476.83938,2.93543,5.61722,6.23104,11.01745,9.78713,16.26165.32014.47207.60086.98296.81444,1.51041.11679.28853.05441.6496.07282.97794-.0865.04498-.17296.09-.25944.135-.30523-.27659-.68305-.5048-.90464-.83716-2.67736-4.01607-5.3315-8.04764-7.99243-12.07468-.18213-.27565-.37031-.54727-.61223-.90415-.2902.2654-.57507.51852-.8526.77257l-.98612-1.97223c.0969-.13733.18072-.38011.1953-.54707.08855-1.01318-.38766-1.81566-1.03504-2.61512-.93961,1.0183-.97049,2.2658-.10185,3.01534.11467.09893.27608.17379.4413.21732l1.03735,2.33404c-.06838.06767-.14239.13154-.20876.20098-.12341.12908-.12961.41515-.115.62393.08017,1.14615-.26773,2.00071-1.30534,2.42331l-.91245-.13033v-1.90319c.2357.08888.4605.10154.59356-.00002.26098-.19917.21679-1.08232-.11118-1.55266-.44044-.6317-.90855-1.24409-1.36479-1.86477-.07788-.00759-.15576-.01515-.23364-.0227-.10205.35759-.33307.73681-.27751,1.06796.09598.57221.32049,1.13924.58217,1.66293.04715.09442.11019.17993.17898.26076v2.26133l-.3875-.05536c-.48755-.35366-.84345-.86866-1.27303-1.29634-.45445,1.22869-.37086,1.69658.51419,2.48318l-.21455,2.57472c-.18114-.22884-.36483-.45531-.56292-.66843-.28871-.31057-.70903-.49881-1.08175-.75029-.52364,1.1577-.22227,2.24721.78776,2.97667.74994.54161,1.3974,1.1615,1.72491,2.05162.44541,1.21063.23278,1.95633-.77079,2.48109l-1.38946-1.94531c.12283-.15494.24877-.31378.385-.4856-.55532-.20889-.99371-.42243-1.45661-.53534-.55272-.13482-.84035.20834-.6911.75873.15629.5763.51254.93926,1.12959,1.0607.1132-.14278.2251-.28394.33789-.42617l1.41608,1.69929c-.05956.02567-.11899.05135-.18301.07597.53497,1.40099,1.63515,2.91905-.63531,3.91879.23757.3632.45144.66377.63586.98148.11936.20564.26357.43349.2727.65646.00981.23933-.06022.55639-.2204.70203-.10662.09697-.46901.01458-.65286-.09501-.49307-.29388-.94618-.65385-1.42556-.97192-.0472-.0313-.09673-.05932-.14419-.0902v-2.65955c.28719-.31504.5631-.61764.84834-.93055-.58285-.73214-1.28933-1.01428-2.24308-.94337.05388.87704.44953,1.47797,1.04724,2.00064v2.31539c-.31748-.1942-.64127-.37994-.98619-.53891.30131.87499,1.0022,1.35295,1.72999,1.78852,2.03139,1.21574,4.07532,2.41049,6.10902,3.6224,3.7067,2.2089,7.41066,4.42242,11.11272,6.63908.43129.25825,1.04045.53904.64208,1.14885-.37011.5666-.86683.11857-1.27596-.1108-4.14875-2.32599-8.29053-4.66441-12.44604-6.97833-.7641-.42547-1.58079-.75645-2.4132-1.14998-.01331.07691-.04876.21213-.05848.34917-.09618,1.35573-.92738,2.16674-2.28216,2.15653-1.67721-.01265-2.97663-.74694-3.87676-2.16432-.38944-.61322-.43409-1.30017-.28838-1.98556.17828-.83839.53356-1.05305,1.86343-1.16841-.26478-.21595-.4499-.38476-.65237-.52921-1.29775-.92591-2.64736-1.7866-3.88828-2.78287-1.84565-1.48182-3.14167-3.3598-3.54318-5.74258-.07297-.43314.02987-.93341.186-1.35256.08322-.22339.44911-.45078.69728-.46222.14775-.0068.46716.41438.45014.62185-.26304,3.20301,2.00663,4.76864,4.11922,6.43113.408.32108.87816.56314,1.45342.92606,0-.42993-.02789-.70826.00746-.97832.03913-.29878.03902-.71503.22645-.86056.51881-.40279.42096-.87477.31248-1.36826-.1873-.85181-.19203-1.62598.65877-2.17098.12303-.0788.17667-.32564.18985-.5002.01456-.19253-.04823-.39269-.08824-.58732-.31552-1.53427-.18138-1.85078,1.20555-2.59165.35245-.18829.4614-.378.36756-.78211-.12435-.5355-.1406-1.09521-.22286-1.6416-.15239-1.01214.10726-1.55213,1.05584-1.9452.45663-.18921.66075-.4442.60159-.93723-.27294-2.27561.57509-4.2625,1.65968-6.16618.92019-1.61507,1.89798-3.19797,2.87755-4.77821.34127-.55054.31807-1.03603.0675-1.62097-.61494-1.4355-1.41203-2.85514-1.6835-4.36262-.56715-3.14965-.02734-6.20134,1.63412-8.99435.15607-.2624.36212-.52479.60876-.69451.20925-.14401.59712-.28818.74978-.18983.19684.12681.32911.49778.32172.75884-.00809.28497-.15288.60643-.33193.84004-2.1665,2.82663-2.24072,5.8555-.88234,9.01546.44332,1.03123.95782,2.03187,1.51936,3.21411.23531-.67327.41922-1.17162.58331-1.67637.18431-.56686.54498-.90213,1.15532-.92094.42615-.01313.63907-.20008.6613-.6465.01518-.30498.13365-.60335.17568-.90884.08109-.58956.41319-.86806.99224-.98038.20654-.04007.43125-.29608.53013-.50829.14654-.31449.1805-.68002.27644-1.01984.19117-.67731.58397-1.14472,1.26645-1.4236.32876-.13436.6882-.45331.81464-.77483.39958-1.01599,1.00939-1.85478,1.79223-2.59709.69119-.65539,1.35859-1.33626,2.02609-2.01608.59006-.60091.58375-.60709,1.31902-.20769.3371-.53622.64138-1.10137,1.02961-1.60131Zm-15.30982,32.78305c.04278.23865.17289.47772.15367.70744-.0247.29535-.15952.58151-.2469.87165-.29247-.13568-.66051-.20153-.86292-.42045-.23799-.25743-.45641-.53297-.67313-.81007l.26238-2.88619c.4342-.23049.88484-.46974,1.4278-.75794l1.01579.16928c2.70065,1.28229,4.47929,3.49284,6.14447,5.82543,1.18387,1.65838,2.3642,3.31944,3.52735,4.99234.20999.30202.38898.65431.46622,1.00865.04333.19887-.09286.53264-.25831.64888-.11811.08296-.47865-.03167-.62607-.16999-.27019-.2535-.4607-.5913-.68818-.89107-1.49923-1.97575-2.94161-3.99865-4.52238-5.90692-.86945-1.0496-1.95525-1.92507-2.98101-2.83686-.28323-.25174-.68747-.39494-1.05987-.51346-.92417-.29408-1.25068.01075-1.07892.96928Zm-36.84746-13.11829c-6.94996,14.94241-25.36738,29.18983-39.96229,25.36735,0,0,22.93489-2.77998,44.13227-35.44482,21.19738-32.66481,41.35229-40.65727,41.35229-40.65727,0,0-38.5723,35.79229-45.52226,50.73473Zm-6.94996,55.25221c23.62986,34.4023,68.45713,54.90471,68.45713,54.90471-20.15488-5.55997-52.47222-28.14736-69.15213-50.03974-16.67993-21.8924-37.52981-29.53735-37.52981-29.53735,0,0,14.59492-9.72994,38.2248,24.67238Zm97.35014,59.14236c-.29139-.30567-.37829-.72359-.29405-1.20102.6209-3.51965,1.20665-7.04565,1.8501-10.5611.23386-1.27765.54744-2.54602.91834-3.79072.16132-.54144.55888-1.01249.84915-1.51549.09305.02501.18609.05004.27912.07506.45854,1.88133.9375,3.75799,1.37059,5.64515.56732,2.47214,1.12479,4.94721,1.63071,7.43237.17522.8607.23293,1.75482.24259,2.63478.00352.32126-.20333.77118-.46096.9453-.17313.11703-.3508.22733-.52982.33567h-5.85576Zm25.82983-403.22994l-4.72078,12.51006-7.34536-16.3705,11.23855,2.04846.8276,1.81198Zm10.83382,23.7201l-4.80792,12.74101-7.43333-16.56659,11.44694,2.08644.79432,1.73914Zm10.83384,23.72013l-4.89506,12.97195-7.52133-16.76269,11.65533,2.12442.76106,1.66632Zm10.83384,23.72013l-4.98222,13.20288-7.6093-16.95878,11.86374,2.16241.72779,1.5935Zm10.83384,23.7201l-5.06938,13.43383-7.69728-17.15488,12.07212,2.20039.69453,1.52066Zm10.83384,23.72013l-5.15652,13.66477-7.78528-17.35097,12.28051,2.23837.66128,1.44784Zm10.83384,23.7201l-5.24368,13.89572-7.87325-17.54707,12.4889,2.27635.62803,1.37499Zm10.83384,23.72013l-5.33082,14.12665-7.96125-17.74316,12.69731,2.31434.59475,1.30217Zm10.83382,23.72013l-5.41796,14.35758-8.04924-17.93925,12.90572,2.35232.56147,1.22935Zm10.98276,24.04616l-5.5063,14.59171-7.93276-17.67971,13.121,2.39158.31807.69643Zm10.83384,23.72013l-5.59344,14.82264-8.02076-17.8758,13.32939,2.42956.28482.6236Zm10.83384,23.7201l-5.6806,15.05359-8.10876-18.0719,13.5378,2.46754.25156.55076Zm10.83384,23.72013l-5.76774,15.28452-8.19675-18.26799,13.74621,2.50553.21829.47794Zm10.83384,23.7201l-3.03361,8.03906c-1.99334-.56592-4.44164-1.36556-7.2917-2.48672l-3.81432-8.50094,13.9546,2.54351.18503.4051Zm-4.32578,11.46328l-1.52912,4.0522-1.33318-2.97126c1.02376-.40813,1.97891-.76661,2.86231-1.08094Zm15.1596,12.25685l-5.94204,15.74641-8.3727-18.66018,14.16299,2.58149.15176.33228Zm10.83384,23.72013l-6.02918,15.97734-8.4607-18.85628,14.3714,2.61948.11848.25946Zm10.75124,23.53923l.06684.14637-6.11621,16.20794-8.53048-19.01179,14.57985,2.65748Zm-14.8405-5.40027l5.63422-14.75635,7.8906,17.27604-13.52482-2.51969Zm-10.81027-23.78259l5.61051-14.69422,7.85737,17.20328-13.46788-2.50907Zm-10.81027-23.78259l2.90185-7.60011c2.69771-.81187,4.17543-1.04746,4.17543-1.04746,0,0-1.23518-.12459-3.52227-.66319l2.03176-5.32132,7.82414,17.13055-13.41092-2.49847Zm-10.81027-23.78259l5.56305-14.56993,7.79093,17.0578-13.35397-2.48787Zm-10.81027-23.78259l5.53934-14.5078,7.75767,16.98504-13.29701-2.47724Zm-10.81027-23.78259l5.51561-14.44567,7.72446,16.91231-13.24007-2.46664Zm-10.81027-23.78259l5.49188-14.38351,7.69123,16.83953-13.18311-2.45602Zm-10.80576-23.78175l-.15127-.33716,5.46504-14.3132,7.80788,17.09494-13.12166-2.44458Zm-10.81478-24.50411l5.29455-13.86671,7.41488,16.23449-12.70943-2.36778Zm-10.81027-23.78259l5.27082-13.80458,7.38165,16.16174-12.65247-2.35716Zm-10.70305-23.76262l-.06204-.1383,5.20191-13.6241,7.34844,16.08898-12.48831-2.32659Zm-10.6584-23.75428l-.14993-.33417,5.11422-13.3944,7.31518,16.01625-12.27948-2.28768Zm-10.6584-23.7543l-.23782-.53002,5.02651-13.1647,7.28197,15.94349-12.07067-2.24877Zm-10.6584-23.7543l-.3257-.72587,4.9388-12.935,7.24874,15.87076-11.86184-2.20989Zm-10.65842-23.75428l-.41357-.92173,4.85109-12.7053,7.21553,15.79799-11.65306-2.17096Zm-10.6584-23.7543l-.50145-1.11758,4.76341-12.4756,7.18228,15.72525-11.44423-2.13208Zm-10.6584-23.7543l-.58934-1.31343,4.6757-12.24592,7.14907,15.65254-11.23542-2.09319Zm140.41051,319.50975c-14.77726-6.51691-37.82679-20.85751-63.63533-52.19647,0,0-32.03419-35.96268-78.17535-39.7728.78499-1.13559.69302-2.21952-.32282-3.54657-.89008-1.16275-1.27114-2.62084-1.25643-4.25547.06783-7.5393.04225-15.08223-.13819-22.61935-.05976-2.49662.79269-4.33904,2.09915-6.42601,1.46127-2.33424,4.664-4.60767,2.21682-7.9967,1.25365-.16992,2.54861-.2723,3.809-.53834,1.09983-.23214,1.69471.19836,2.17116,1.11754.60722,1.17146,1.28055,2.30972,1.9507,3.4474.8943,1.51821,2.0286,2.29868,3.93621.98032-.44926-2.12669-.96728-4.33051-1.36817-6.55542-.32113-1.78207-.69913-3.5915-.68316-5.38552.01445-1.62279-.03429-3.85452.93294-4.73978,2.35859-2.15869,5.25564-3.74849,8.01663-5.4354.62171-.37985,1.59864-.39164,2.36778-.27679,1.9876.2968,3.9505.75895,5.92326,1.15508.17283-.16917.34567-.33835.5185-.50752-.53189-1.50513-1.06796-3.00878-1.59429-4.51587-.40369-1.15596-1.25898-2.37814-1.11382-3.46416.73687-5.51308,2.0803-10.92567,4.54226-15.92553,1.0896-2.21281,2.1921-4.64123,4.60281-5.95381.70166-.38203,1.40075-.82304,1.97698-1.36798.82733-.78238,1.541-1.68475,2.30319-2.5359-1.07328-.52408-2.15543-1.03097-3.217-1.57775-.81664-.42065-2.01043-.69559-2.34055-1.37365-1.50245-3.08585-3.12346-6.18971-4.03966-9.47167-3.78379-13.55381-7.31824-27.17705-10.96816-40.76838-.57938-2.15741-1.28088-4.2821-1.92593-6.42192-1.66616,4.09115-2.77004,8.21545-4.41089,12.11407-1.05842,2.51483.00829,4.1727,1.38359,5.73183,2.98015,3.37845,4.62034,7.22831,4.19175,11.68862-.40895,4.25623-2.58611,7.57398-6.49865,9.89078-.27437-.87378-.58793-1.55543-.69724-2.26835-1.51927-9.90847-2.98666-19.82492-4.51901-29.73134-.74483-4.8152-1.59044-9.61496-2.41984-14.41664-.058-.3358-.36056-.62943-.75277-1.28005-.30793.93376-.53726,1.40306-.61344,1.896-.59405,3.84403-1.19106,7.68828-1.7098,11.54285-.13135.97605-.35803,2.22979.10115,2.94342,1.79782,2.79404,1.71561,5.60255,1.06825,8.71699-.52954,2.54767-1.5681,5.11128-.5326,7.87866,1.15275,3.08072-.7167,8.75572-3.4083,10.96735-.13288-.40578-.27089-.77589-.37574-1.15514-1.57615-5.7011-3.1288-11.40878-4.73495-17.10139-.37431-1.32661-.8021-2.68345-2.31959-3.69747-3.11695,6.88248-3.68693,14.2677-6.25778,21.21649-1.44713-3.32245-2.95226-6.63193-3.74693-10.10377-1.25588-5.48688-1.39272-11.0273,1.11331-16.33663.2999-.63542.42597-1.46088.33017-2.15664-.52325-3.80042-1.10867-7.59332-1.74833-11.37601-.16746-.99041-.60434-1.93534-.91748-2.90117-.22513.01784-.45027.0357-.6754.05353-.24457,1.06644-.58094,2.12134-.71701,3.20145-.45909,3.64431-.7621,7.3105-1.31486,10.93941-.1622,1.06477-1.2573,1.99-1.41097,3.05332-.90989,6.29649-1.6985,12.61114-2.46671,18.92714-.45373,3.73041-.79463,7.47453-1.18965,11.24484-7.82935-3.57147-9.56534-13.95787-4.24025-20.67921,2.05297-2.59128,3.49812-4.99966,1.40594-8.18855-.27316-.41636-.33325-.96921-.51034-1.45215-1.1538-3.14646-2.31267-6.29108-3.54732-9.64672-.31743,1.11402-.58866,1.93009-.7818,2.76421-2.69551,11.64022-5.28307,23.30652-8.10691,34.91546-1.51678,6.23554-2.66452,12.60384-5.67196,18.40739-.68215,1.31636-1.35973,2.18035-2.90713,2.49708-1.13535.23241-2.15579,1.02532-3.22742,1.56843.82716.87712,1.51287,1.98877,2.5077,2.58787,3.11813,1.87776,5.59659,4.3684,6.8983,7.70484,1.70355,4.36633,3.02614,8.88194,4.48444,13.34254.69511,2.12616.43446,4.07483-.77888,6.05221-.71772,1.16966-.84728,2.69966-1.24132,4.06764l.52316.4356c1.14125-.22671,2.30151-.38493,3.41971-.69471,2.17591-.60282,4.28815-1.06112,6.28081.54832,1.59893,1.29144,4.0732,2.18719,4.71313,3.82325,1.06697,2.72784,1.30809,5.91123,1.27233,8.89536-.02952,2.46394-1.03579,4.90518-1.43811,7.3842-.0896.55215.39434,1.51914.8755,1.74899.45716.21835,1.52094-.07111,1.85656-.49879,1.08996-1.38891,1.86991-3.02257,2.97441-4.39741.47148-.58688,1.56308-1.2087,2.17815-1.05189,2.16678.55239,4.17583.8122,5.97448-1.11498.15028.19363.30056.38728.45085.58092-.67657.98122-1.35313,1.96242-2.2142,3.21123,1.49409,2.38694,3.12709,4.93803,4.69197,7.53022.48445.80248,1.08699,1.70494,1.12075,2.5814.33215,8.62376.53407,17.2524.83122,25.87767.04957,1.43902-.50224,2.44368-1.3846,3.52176-.46613.56952-.45406,1.69322-.33969,2.52292.01907.13836.06101.27356.11278.40743-47.6844,2.48716-81.05428,39.66292-81.05428,39.66292-24.62474,29.90148-46.73615,44.32634-61.54883,51.24777L231.17804,59.94341l147.25657,324.43875Zm-140.1015-175.76447c1.16308,4.0306.88137,5.24344-1.89002,8.30083-.87493-1.80222-.84057-3.86818.12864-8.28108.60269-2.74413,1.19799-5.48987,1.79927-8.24716,3.51978,3.19879,3.95187,4.60217-.03789,8.22741Zm4.53707,10.54133c.20667-.01964.41337-.03928.62006-.05892.26883,1.55479.53765,3.1096.85089,4.92128h-3.24244c.5889-1.61639,1.1802-3.23936,1.77149-4.86235Zm13.42686-14.84892c.63495.4475,1.4602,1.11248,1.54857,1.76762.54337,4.02856-1.05406,7.3323-3.92734,10.52004-2.46427-8.34838-3.17602-16.66792-4.54622-25.21672,2.23692.52747,4.32919.65609,5.84041,2.44111.5969.70507,1.63324,1.0584,2.16947,1.79111,1.32373,1.80886,1.01936,2.82351-.863,4.00549-1.18831.74617-2.32841,1.56902-3.86092,2.60912,1.49409.83908,2.62983,1.37103,3.63905,2.08224Zm-37.13329-2.42072c-.09545-.67206.99928-1.51291,1.84953-2.20635,1.25194,5.5149,3.75909,10.65431,3.35962,16.59369-2.33292-2.22003-2.71075-4.04782-1.70199-7.64548-2.31563-1.73738-3.14479-4.19074-3.50716-6.74186Zm1.26595,22.26827c-1.98815-.10852-3.72865-.20351-5.44567-.29722-.53425-2.92686.89173-5.03423,2.48558-7.70667,1.08587,2.93612,1.99202,5.38626,2.96009,8.00389Zm-13.47945-22.07479c-1.39197-.9177-2.5924-1.77451-3.85549-2.5262-1.79868-1.0704-2.13834-2.18972-.98986-3.92923,1.39996-2.12038,3.49812-3.18849,6.15318-3.89013-.44904,3.55229-.87563,6.92667-1.30782,10.34557Zm.06059.32638c-.73304,4.07587-1.40341,7.8032-2.1147,11.75817-2.27699-1.98567-3.56711-6.70361-2.58838-8.93072.20951-.47675.89406-.78143,1.40946-1.07969.93627-.54179,1.90981-1.01927,3.29362-1.74776ZM52.90195,443.90696l-5.98603-15.86311.25807-.56068,14.3368-2.61316-8.60885,19.03695Zm10.78511-23.84938l-5.89902-15.63233.34618-.75198,14.12645-2.57485-8.57361,18.95916Zm10.78504-23.84936l-1.27541-3.37988c.77536.31251,1.56893.63616,2.36677.96651l-1.09136,2.41337Zm-3.18262-8.43397l-2.62928-6.9676.43424-.9433,13.91613-2.53649-3.35223,7.41288c-3.26182,1.37081-6.07497,2.34649-8.36885,3.03452Zm8.76518-31.72083l13.70581-2.49816-8.50328,18.80358-5.72483-15.17077.5223-1.13465Zm10.96022-23.8099l13.49546-2.45985-8.46809,18.72579-5.63774-14.94.61036-1.32595Zm10.96022-23.80993l13.28513-2.42149-8.43292,18.648-5.55066-14.70924.69845-1.51727Zm10.96022-23.80993l13.07479-2.38315-8.39773,18.57021-5.46357-14.47846.78651-1.70859Zm14.20398-5.28124l.31805-.30226-.11997.26535-.19807.03691Zm-2.88164-19.31537l12.85751-2.34354-8.5695,18.95001-5.37527-14.24452,1.08725-2.36195Zm10.96022-23.8099l12.64719-2.30521-8.53431,18.8722-5.28822-14.01374,1.17534-2.55325Zm10.96022-23.80993l12.43684-2.26687-8.49912,18.79441-5.20112-13.78294,1.2634-2.7446Zm10.96022-23.80993l12.22652-2.22854-8.46395,18.71664-5.11403-13.55218,1.35146-2.93592Zm10.96022-23.8099l12.01617-2.19021-8.42876,18.63883-5.02695-13.3214,1.43954-3.12722Zm10.96022-23.80993l11.80585-2.15187-8.39359,18.56103-4.93986-13.09062,1.52761-3.31854Zm10.9602-23.80993l11.59552-2.11351-8.3584,18.48324-4.85277-12.85987,1.61565-3.50986Zm10.96022-23.80993l11.3852-2.07518-8.32324,18.40545-4.76569-12.62909,1.70373-3.70118Zm10.96022-23.8099l11.17488-2.03687-8.28807,18.32766-4.6786-12.39829,1.79179-3.89251Zm1.33024-2.88978l6.20763-13.48545,4.39482,11.51021-10.60245,1.97524Zm-4.66492,10.13401l4.4571,11.67334-10.75271,2.00324,6.29561-13.67658Zm-10.87253,23.61948l4.51937,11.83644-10.90297,2.03124,6.3836-13.86768Zm-10.87255,23.61946l4.58165,11.99957-11.05323,2.05923,6.47158-14.0588Zm-10.87255,23.61946l4.64394,12.16269-11.20347,2.08721,6.55953-14.2499Zm-10.87255,23.61946l4.70622,12.32582-11.35373,2.11521,6.6475-14.44103Zm-10.87255,23.61948l4.76851,12.48892-11.50399,2.1432,6.73548-14.63213Zm-10.87255,23.61946l4.83079,12.65205-11.65425,2.1712,6.82345-14.82325Zm-10.87253,23.61946l4.89306,12.81518-11.80451,2.19918,6.91145-15.01436Zm-10.87255,23.61948l5.21225,13.65111-12.57452,2.34264,7.36227-15.99375Zm-11.02297,23.94622l5.16804,13.53533-12.46788,2.32278,7.29983-15.85812Zm-10.87255,23.61946l5.23033,13.69846-12.61814,2.35076,7.38781-16.04922Zm-10.87255,23.61946l5.29261,13.86159-12.76837,2.37876,7.47576-16.24034Zm-10.87255,23.61948l5.3549,14.02469-12.91863,2.40675,7.56373-16.43144Zm-10.87253,23.61946l1.64444,4.30686c-1.98278.50543-3.34797.74039-4.01252.83754l2.36809-5.1444Zm2.80897,7.35686l2.60819,6.83095-13.06887,2.43475,5.19109-11.27719c.79227.29438,2.77222,1.03576,5.26959,2.01149Zm-13.6815,16.2626l5.47943,14.35094-13.21913,2.46273,7.7397-16.81367Zm-10.87255,23.61946l5.54171,14.51407-13.36939,2.49072,7.82768-17.00479Zm-9.15231,19.88238l14.54715-2.65152-8.64399,19.11477-6.07321-16.09389.17005-.36936Zm41.77839-56.47588c3.65616,1.56689,7.09331,3.17853,8.91297,4.39117,5.19241,2.89466,11.02277,6.56083,17.21226,11.16078,23.08462,16.86296,37.16023,35.62893,37.16023,35.62893,15.52755,14.27533,31.10076,23.4866,46.17604,28.88986H41.36432l36.62785-80.07073Zm-4.05372,83.55464l6.85163,9.71171h-16.37943l9.5278-9.71171Zm10.02499,9.71171l-7.3116-10.44992h20.42217l-10.33237,10.44992h-2.7782Zm16.09905-9.80554l6.91781,9.80554h-16.53772l9.61991-9.80554Zm10.09062,9.80554l-7.3116-10.44992h20.26373l-10.33235,10.44992h-2.61978Zm16.03338-9.89938l6.98403,9.89938h-16.696l9.71198-9.89938Zm10.15631,9.89938l-7.3116-10.44992h20.10527l-10.33233,10.44992h-2.46134Zm15.96773-9.99321l7.05021,9.99321h-16.85425l9.80404-9.99321Zm10.22194,9.99321l-7.3116-10.44992h19.94685l-10.33233,10.44992h-2.30292Zm15.90206-10.08705l7.11643,10.08705h-17.01251l9.89608-10.08705Zm10.28761,10.08705l-7.31158-10.44992h14.83264c1.33382.35544,2.66265.68156,3.98633.98043l-9.36292,9.4695h-2.14448Zm14.51611-8.83509c.8709.17021,1.73945.32898,2.60536.47568l5.89759,8.35942h-17.17078l8.66783-8.83509Zm11.67358,8.83509l-5.46854-7.81578c4.85303.64896,9.61923.93802,14.2783.91438l-6.82374,6.9014h-1.98602Zm12.54569-6.98742c.60619-.02483,1.2111-.05303,1.8133-.08815,1.25955.08639,2.52814.15116,3.80524.19343l4.85536,6.88213h-17.32904l6.85515-6.98742Zm13.64398,6.98742l-4.77592-6.82585c4.6577.01234,9.42166-.28077,14.27181-.92973l-7.66829,7.75558h-1.8276Zm13.79539-8.42199c1.21231-.2134,2.42917-.44799,3.65095-.70751l6.44085,9.1295h-18.35436l8.26256-8.42199Zm13.2596,8.42199l-6.82827-9.75917c.90356-.21727,1.80939-.44719,2.71752-.69075h15.60475l-10.33233,10.44992h-1.16168Zm15.12204-10.44992h.52796l7.37246,10.44992h-18.1525l10.25209-10.44992Zm11.06764,10.44992l-7.31158-10.44992h18.64714l-10.33233,10.44992h-1.00324Zm14.96432-10.44992h.68624l7.37243,10.44992h-18.31075l10.25207-10.44992Zm11.22537,10.44992l-7.3116-10.44992h18.48872l-10.33235,10.44992h-.84477Zm14.80658-10.44992h.84451l7.37246,10.44992h-18.46906l10.25209-10.44992Zm11.38309,10.44992l-7.3116-10.44992h18.33028l-10.33233,10.44992h-.68635Zm14.64887-10.44992h.49435l7.37243,10.44992h-18.11885l10.25207-10.44992Zm11.03658,10.44992l-7.3116-10.44992h19.38865l-10.33235,10.44992h-1.7447Zm15.67077-10.41764l7.34965,10.41764h-17.57007l10.22042-10.41764Zm10.5189,10.41764l-7.3116-10.44992h19.23023l-10.33235,10.44992h-1.58628Zm15.54471-10.44992h9.08219l-2.90442-6.47305,6.12113-16.25851,15.15518,33.18149h-37.70617l10.25209-10.44992ZM240.56889,47.93788l-4.63364,12.27913-4.74269-10.57001-5.5813,12.34214-4.59153-12.16751,10.24466-22.25544,9.3045,20.3717ZM34.49353,455.03019l5.92568,15.5197.76177-.72387-3.53076,7.80762h9.57718l7.37246,10.44992H19.27831l15.21522-33.05337Z"/></g></svg>